<svg xmlns="http://www.w3.org/2000/svg" viewBox="0 0 720 1280" width="720" height="1280"><title>preview-folio — conceptual news illustration</title><defs>
<pattern id="grain" width="31" height="29" patternUnits="userSpaceOnUse">
  <circle cx="4" cy="6" r="1.2" fill="#806F5D" opacity=".16"/>
  <circle cx="23" cy="12" r=".85" fill="#806F5D" opacity=".13"/>
  <circle cx="12" cy="24" r=".7" fill="#806F5D" opacity=".12"/>
  <path d="M18 3 l2 .7 M5 20 l2 -.4" stroke="#806F5D" stroke-width=".8" opacity=".12"/>
  <circle cx="28" cy="27" r="1.5" fill="#FFFFFF" opacity=".16"/>
</pattern>
<pattern id="darkGrain" width="29" height="31" patternUnits="userSpaceOnUse">
  <circle cx="7" cy="9" r=".9" fill="#F4EBD8" opacity=".09"/>
  <circle cx="20" cy="23" r=".7" fill="#F4EBD8" opacity=".08"/>
</pattern>
<pattern id="worldPaper" width="1365" height="1365" patternUnits="userSpaceOnUse"><image href="../materials/wall.png" width="1365" height="1365"/></pattern></defs><g id="body"><g opacity="1.00000" transform="translate(104.0000 365.0000) rotate(-7.0000) scale(1.00000 1.00000)"><path d="M3 5Q132.6 -1 255.0 2L505 1Q511 2 510 11L508 531Q509 537 501 535L229.5 534L2 535Z" fill="#202C32" stroke="#202C32" stroke-width="0" stroke-linecap="round" stroke-linejoin="round" transform="translate(5 7)" opacity=".15" /><path d="M3 5Q132.6 -1 255.0 2L505 1Q511 2 510 11L508 531Q509 537 501 535L229.5 534L2 535Z" fill="#DCCDB3" stroke="#DCCDB3" stroke-width="0" stroke-linecap="round" stroke-linejoin="round" transform="translate(2 3)" /><path d="M3 5Q132.6 -1 255.0 2L505 1Q511 2 510 11L508 531Q509 537 501 535L229.5 534L2 535Z" fill="#56BFB1" stroke="#56BFB1" stroke-width="0" stroke-linecap="round" stroke-linejoin="round" /><path d="M3 5Q132.6 -1 255.0 2L505 1Q511 2 510 11L508 531Q509 537 501 535L229.5 534L2 535Z" fill="url(#worldPaper)" stroke="#56BFB1" stroke-width="0" stroke-linecap="round" stroke-linejoin="round" opacity=".13" /><path d="M34 28V508" fill="none" stroke="#254D50" stroke-width="11" stroke-linecap="round" stroke-linejoin="round" /></g><g data-asset="preview-folio" id="preview-folio"><g opacity="1.00000" transform="translate(92.0000 399.0000) rotate(-9.0000) scale(0.02000 0.02000)"><path d="M3 5Q68.9 -1 132.5 2L260 1Q266 2 265 11L263 409Q264 415 256 413L119.25 412L2 413Z" fill="#202C32" stroke="#202C32" stroke-width="0" stroke-linecap="round" stroke-linejoin="round" transform="translate(5 7)" opacity=".15" /><path d="M3 5Q68.9 -1 132.5 2L260 1Q266 2 265 11L263 409Q264 415 256 413L119.25 412L2 413Z" fill="#DCCDB3" stroke="#DCCDB3" stroke-width="0" stroke-linecap="round" stroke-linejoin="round" transform="translate(2 3)" /><path d="M3 5Q68.9 -1 132.5 2L260 1Q266 2 265 11L263 409Q264 415 256 413L119.25 412L2 413Z" fill="#F4EBD8" stroke="#F4EBD8" stroke-width="0" stroke-linecap="round" stroke-linejoin="round" /><path d="M3 5Q68.9 -1 132.5 2L260 1Q266 2 265 11L263 409Q264 415 256 413L119.25 412L2 413Z" fill="url(#worldPaper)" stroke="#F4EBD8" stroke-width="0" stroke-linecap="round" stroke-linejoin="round" opacity=".13" /><g opacity="1.00000" transform="translate(133.0000 77.0000) rotate(0.0000) scale(1.50000 1.50000)"><path d="M-29 -15H-7L1 -23H25L31 25H-31Z" fill="none" stroke="#254D50" stroke-width="4" stroke-linecap="round" stroke-linejoin="round" /></g><g opacity="1.00000" transform="translate(50.0000 134.0000) rotate(0.0000) scale(1.00000 1.00000)"><path d="M3 5Q31.98 -1 61.5 2L118 1Q124 2 123 11L121 90Q122 96 114 94L55.35 93L2 94Z" fill="#202C32" stroke="#202C32" stroke-width="0" stroke-linecap="round" stroke-linejoin="round" transform="translate(5 7)" opacity=".15" /><path d="M3 5Q31.98 -1 61.5 2L118 1Q124 2 123 11L121 90Q122 96 114 94L55.35 93L2 94Z" fill="#DCCDB3" stroke="#DCCDB3" stroke-width="0" stroke-linecap="round" stroke-linejoin="round" transform="translate(2 3)" /><path d="M3 5Q31.98 -1 61.5 2L118 1Q124 2 123 11L121 90Q122 96 114 94L55.35 93L2 94Z" fill="#F4EBD8" stroke="#F4EBD8" stroke-width="0" stroke-linecap="round" stroke-linejoin="round" /><path d="M3 5Q31.98 -1 61.5 2L118 1Q124 2 123 11L121 90Q122 96 114 94L55.35 93L2 94Z" fill="url(#worldPaper)" stroke="#F4EBD8" stroke-width="0" stroke-linecap="round" stroke-linejoin="round" opacity=".13" /><path d="M16 28H102M16 49H88" fill="none" stroke="#64869A" stroke-width="6" stroke-linecap="round" stroke-linejoin="round" /></g><g opacity="1.00000" transform="translate(50.0000 176.0000) rotate(0.0000) scale(1.00000 1.00000)"><path d="M3 5Q31.98 -1 61.5 2L118 1Q124 2 123 11L121 90Q122 96 114 94L55.35 93L2 94Z" fill="#202C32" stroke="#202C32" stroke-width="0" stroke-linecap="round" stroke-linejoin="round" transform="translate(5 7)" opacity=".15" /><path d="M3 5Q31.98 -1 61.5 2L118 1Q124 2 123 11L121 90Q122 96 114 94L55.35 93L2 94Z" fill="#DCCDB3" stroke="#DCCDB3" stroke-width="0" stroke-linecap="round" stroke-linejoin="round" transform="translate(2 3)" /><path d="M3 5Q31.98 -1 61.5 2L118 1Q124 2 123 11L121 90Q122 96 114 94L55.35 93L2 94Z" fill="#F4EBD8" stroke="#F4EBD8" stroke-width="0" stroke-linecap="round" stroke-linejoin="round" /><path d="M3 5Q31.98 -1 61.5 2L118 1Q124 2 123 11L121 90Q122 96 114 94L55.35 93L2 94Z" fill="url(#worldPaper)" stroke="#F4EBD8" stroke-width="0" stroke-linecap="round" stroke-linejoin="round" opacity=".13" /><path d="M16 28H102M16 49H88" fill="none" stroke="#64869A" stroke-width="6" stroke-linecap="round" stroke-linejoin="round" /></g><g opacity="1.00000" transform="translate(50.0000 218.0000) rotate(0.0000) scale(1.00000 1.00000)"><path d="M3 5Q31.98 -1 61.5 2L118 1Q124 2 123 11L121 90Q122 96 114 94L55.35 93L2 94Z" fill="#202C32" stroke="#202C32" stroke-width="0" stroke-linecap="round" stroke-linejoin="round" transform="translate(5 7)" opacity=".15" /><path d="M3 5Q31.98 -1 61.5 2L118 1Q124 2 123 11L121 90Q122 96 114 94L55.35 93L2 94Z" fill="#DCCDB3" stroke="#DCCDB3" stroke-width="0" stroke-linecap="round" stroke-linejoin="round" transform="translate(2 3)" /><path d="M3 5Q31.98 -1 61.5 2L118 1Q124 2 123 11L121 90Q122 96 114 94L55.35 93L2 94Z" fill="#F4EBD8" stroke="#F4EBD8" stroke-width="0" stroke-linecap="round" stroke-linejoin="round" /><path d="M3 5Q31.98 -1 61.5 2L118 1Q124 2 123 11L121 90Q122 96 114 94L55.35 93L2 94Z" fill="url(#worldPaper)" stroke="#F4EBD8" stroke-width="0" stroke-linecap="round" stroke-linejoin="round" opacity=".13" /><path d="M16 28H102M16 49H88" fill="none" stroke="#64869A" stroke-width="6" stroke-linecap="round" stroke-linejoin="round" /></g></g></g><g opacity="1.00000" transform="translate(362.0000 506.0000) rotate(7.0000) scale(0.02000 0.02000)"><path d="M3 5Q65.0 -1 125.0 2L245 1Q251 2 250 11L248 346Q249 352 241 350L112.5 349L2 350Z" fill="#202C32" stroke="#202C32" stroke-width="0" stroke-linecap="round" stroke-linejoin="round" transform="translate(5 7)" opacity=".15" /><path d="M3 5Q65.0 -1 125.0 2L245 1Q251 2 250 11L248 346Q249 352 241 350L112.5 349L2 350Z" fill="#DCCDB3" stroke="#DCCDB3" stroke-width="0" stroke-linecap="round" stroke-linejoin="round" transform="translate(2 3)" /><path d="M3 5Q65.0 -1 125.0 2L245 1Q251 2 250 11L248 346Q249 352 241 350L112.5 349L2 350Z" fill="#EBC46B" stroke="#EBC46B" stroke-width="0" stroke-linecap="round" stroke-linejoin="round" /><path d="M3 5Q65.0 -1 125.0 2L245 1Q251 2 250 11L248 346Q249 352 241 350L112.5 349L2 350Z" fill="url(#worldPaper)" stroke="#EBC46B" stroke-width="0" stroke-linecap="round" stroke-linejoin="round" opacity=".13" /><g opacity="1.00000" transform="translate(125.0000 92.0000) rotate(0.0000) scale(1.80000 1.80000)"><path d="M-25 -22H25V24H-25Z M-25 -9H25 M-14 -30V-15M14 -30V-15 M-12 2H-6M6 2H12M-12 13H-6" fill="none" stroke="#254D50" stroke-width="4" stroke-linecap="round" stroke-linejoin="round" /></g><g opacity="1.00000" transform="translate(48.0000 175.0000) rotate(0.0000) scale(1.00000 1.00000)"><path d="M3 5Q40.300000000000004 -1 77.5 2L150 1Q156 2 155 11L153 45Q154 51 146 49L69.75 48L2 49Z" fill="#202C32" stroke="#202C32" stroke-width="0" stroke-linecap="round" stroke-linejoin="round" transform="translate(5 7)" opacity=".15" /><path d="M3 5Q40.300000000000004 -1 77.5 2L150 1Q156 2 155 11L153 45Q154 51 146 49L69.75 48L2 49Z" fill="#DCCDB3" stroke="#DCCDB3" stroke-width="0" stroke-linecap="round" stroke-linejoin="round" transform="translate(2 3)" /><path d="M3 5Q40.300000000000004 -1 77.5 2L150 1Q156 2 155 11L153 45Q154 51 146 49L69.75 48L2 49Z" fill="#F4EBD8" stroke="#F4EBD8" stroke-width="0" stroke-linecap="round" stroke-linejoin="round" /><path d="M3 5Q40.300000000000004 -1 77.5 2L150 1Q156 2 155 11L153 45Q154 51 146 49L69.75 48L2 49Z" fill="url(#worldPaper)" stroke="#F4EBD8" stroke-width="0" stroke-linecap="round" stroke-linejoin="round" opacity=".13" /><g opacity="1.00000" transform="translate(20.0000 24.0000) rotate(0.0000) scale(0.35000 0.35000)"><path d="M-20 0L-5 15L25 -20" fill="none" stroke="#56BFB1" stroke-width="7" stroke-linecap="round" stroke-linejoin="round" /></g><rect x="43" y="17" width="95" height="10" rx="2" fill="#254D50" /></g><g opacity="1.00000" transform="translate(48.0000 226.0000) rotate(0.0000) scale(1.00000 1.00000)"><path d="M3 5Q40.300000000000004 -1 77.5 2L150 1Q156 2 155 11L153 45Q154 51 146 49L69.75 48L2 49Z" fill="#202C32" stroke="#202C32" stroke-width="0" stroke-linecap="round" stroke-linejoin="round" transform="translate(5 7)" opacity=".15" /><path d="M3 5Q40.300000000000004 -1 77.5 2L150 1Q156 2 155 11L153 45Q154 51 146 49L69.75 48L2 49Z" fill="#DCCDB3" stroke="#DCCDB3" stroke-width="0" stroke-linecap="round" stroke-linejoin="round" transform="translate(2 3)" /><path d="M3 5Q40.300000000000004 -1 77.5 2L150 1Q156 2 155 11L153 45Q154 51 146 49L69.75 48L2 49Z" fill="#F4EBD8" stroke="#F4EBD8" stroke-width="0" stroke-linecap="round" stroke-linejoin="round" /><path d="M3 5Q40.300000000000004 -1 77.5 2L150 1Q156 2 155 11L153 45Q154 51 146 49L69.75 48L2 49Z" fill="url(#worldPaper)" stroke="#F4EBD8" stroke-width="0" stroke-linecap="round" stroke-linejoin="round" opacity=".13" /><g opacity="1.00000" transform="translate(20.0000 24.0000) rotate(0.0000) scale(0.35000 0.35000)"><path d="M-20 0L-5 15L25 -20" fill="none" stroke="#56BFB1" stroke-width="7" stroke-linecap="round" stroke-linejoin="round" /></g><rect x="43" y="17" width="95" height="10" rx="2" fill="#254D50" /></g><g opacity="1.00000" transform="translate(48.0000 277.0000) rotate(0.0000) scale(1.00000 1.00000)"><path d="M3 5Q40.300000000000004 -1 77.5 2L150 1Q156 2 155 11L153 45Q154 51 146 49L69.75 48L2 49Z" fill="#202C32" stroke="#202C32" stroke-width="0" stroke-linecap="round" stroke-linejoin="round" transform="translate(5 7)" opacity=".15" /><path d="M3 5Q40.300000000000004 -1 77.5 2L150 1Q156 2 155 11L153 45Q154 51 146 49L69.75 48L2 49Z" fill="#DCCDB3" stroke="#DCCDB3" stroke-width="0" stroke-linecap="round" stroke-linejoin="round" transform="translate(2 3)" /><path d="M3 5Q40.300000000000004 -1 77.5 2L150 1Q156 2 155 11L153 45Q154 51 146 49L69.75 48L2 49Z" fill="#F4EBD8" stroke="#F4EBD8" stroke-width="0" stroke-linecap="round" stroke-linejoin="round" /><path d="M3 5Q40.300000000000004 -1 77.5 2L150 1Q156 2 155 11L153 45Q154 51 146 49L69.75 48L2 49Z" fill="url(#worldPaper)" stroke="#F4EBD8" stroke-width="0" stroke-linecap="round" stroke-linejoin="round" opacity=".13" /><g opacity="1.00000" transform="translate(20.0000 24.0000) rotate(0.0000) scale(0.35000 0.35000)"><path d="M-20 0L-5 15L25 -20" fill="none" stroke="#56BFB1" stroke-width="7" stroke-linecap="round" stroke-linejoin="round" /></g><rect x="43" y="17" width="95" height="10" rx="2" fill="#254D50" /></g></g><path d="M347 402L345 898" fill="none" stroke="#254D50" stroke-width="9" stroke-linecap="round" stroke-linejoin="round" /><g opacity="0.33000" transform="translate(125.0000 315.0000) rotate(-5.0000) scale(1.00000 1.00000)"><path d="M3 5Q115.7 -1 222.5 2L440 1Q446 2 445 11L443 281Q444 287 436 285L200.25 284L2 285Z" fill="#202C32" stroke="#202C32" stroke-width="0" stroke-linecap="round" stroke-linejoin="round" transform="translate(5 7)" opacity=".15" /><path d="M3 5Q115.7 -1 222.5 2L440 1Q446 2 445 11L443 281Q444 287 436 285L200.25 284L2 285Z" fill="#DCCDB3" stroke="#DCCDB3" stroke-width="0" stroke-linecap="round" stroke-linejoin="round" transform="translate(2 3)" /><path d="M3 5Q115.7 -1 222.5 2L440 1Q446 2 445 11L443 281Q444 287 436 285L200.25 284L2 285Z" fill="#64869A" stroke="#64869A" stroke-width="0" stroke-linecap="round" stroke-linejoin="round" /><path d="M3 5Q115.7 -1 222.5 2L440 1Q446 2 445 11L443 281Q444 287 436 285L200.25 284L2 285Z" fill="url(#worldPaper)" stroke="#64869A" stroke-width="0" stroke-linecap="round" stroke-linejoin="round" opacity=".13" /><g opacity="1.00000" transform="translate(46.0000 70.0000) rotate(-3.0000) scale(1.00000 1.00000)"><path d="M3 5Q36.4 -1 70.0 2L135 1Q141 2 140 11L138 144Q139 150 131 148L63.0 147L2 148Z" fill="#202C32" stroke="#202C32" stroke-width="0" stroke-linecap="round" stroke-linejoin="round" transform="translate(5 7)" opacity=".15" /><path d="M3 5Q36.4 -1 70.0 2L135 1Q141 2 140 11L138 144Q139 150 131 148L63.0 147L2 148Z" fill="#DCCDB3" stroke="#DCCDB3" stroke-width="0" stroke-linecap="round" stroke-linejoin="round" transform="translate(2 3)" /><path d="M3 5Q36.4 -1 70.0 2L135 1Q141 2 140 11L138 144Q139 150 131 148L63.0 147L2 148Z" fill="#F4EBD8" stroke="#F4EBD8" stroke-width="0" stroke-linecap="round" stroke-linejoin="round" /><path d="M3 5Q36.4 -1 70.0 2L135 1Q141 2 140 11L138 144Q139 150 131 148L63.0 147L2 148Z" fill="url(#worldPaper)" stroke="#F4EBD8" stroke-width="0" stroke-linecap="round" stroke-linejoin="round" opacity=".13" /><g opacity="1.00000" transform="translate(70.0000 80.0000) rotate(0.0000) scale(1.10000 1.10000)"><path d="M-29 -15H-7L1 -23H25L31 25H-31Z" fill="none" stroke="#254D50" stroke-width="4" stroke-linecap="round" stroke-linejoin="round" /></g></g><g opacity="1.00000" transform="translate(255.0000 85.0000) rotate(5.0000) scale(1.00000 1.00000)"><path d="M3 5Q30.42 -1 58.5 2L112 1Q118 2 117 11L115 128Q116 134 108 132L52.65 131L2 132Z" fill="#202C32" stroke="#202C32" stroke-width="0" stroke-linecap="round" stroke-linejoin="round" transform="translate(5 7)" opacity=".15" /><path d="M3 5Q30.42 -1 58.5 2L112 1Q118 2 117 11L115 128Q116 134 108 132L52.65 131L2 132Z" fill="#DCCDB3" stroke="#DCCDB3" stroke-width="0" stroke-linecap="round" stroke-linejoin="round" transform="translate(2 3)" /><path d="M3 5Q30.42 -1 58.5 2L112 1Q118 2 117 11L115 128Q116 134 108 132L52.65 131L2 132Z" fill="#F4EBD8" stroke="#F4EBD8" stroke-width="0" stroke-linecap="round" stroke-linejoin="round" /><path d="M3 5Q30.42 -1 58.5 2L112 1Q118 2 117 11L115 128Q116 134 108 132L52.65 131L2 132Z" fill="url(#worldPaper)" stroke="#F4EBD8" stroke-width="0" stroke-linecap="round" stroke-linejoin="round" opacity=".13" /><g opacity="1.00000" transform="translate(58.0000 74.0000) rotate(0.0000) scale(1.05000 1.05000)"><path d="M-25 -22H25V24H-25Z M-25 -9H25 M-14 -30V-15M14 -30V-15 M-12 2H-6M6 2H12M-12 13H-6" fill="none" stroke="#254D50" stroke-width="4" stroke-linecap="round" stroke-linejoin="round" /></g></g><path d="M198 146H244" fill="none" stroke="#A6E5D6" stroke-width="12" stroke-linecap="round" stroke-linejoin="round" /><g opacity="0.32000" transform="translate(21.0000 21.0000) rotate(0.0000) scale(1.00000 1.00000)"><path d="M3 5Q104.26 -1 200.5 2L396 1Q402 2 401 11L399 235Q400 241 392 239L180.45000000000002 238L2 239Z" fill="#202C32" stroke="#202C32" stroke-width="0" stroke-linecap="round" stroke-linejoin="round" transform="translate(5 7)" opacity=".15" /><path d="M3 5Q104.26 -1 200.5 2L396 1Q402 2 401 11L399 235Q400 241 392 239L180.45000000000002 238L2 239Z" fill="#DCCDB3" stroke="#DCCDB3" stroke-width="0" stroke-linecap="round" stroke-linejoin="round" transform="translate(2 3)" /><path d="M3 5Q104.26 -1 200.5 2L396 1Q402 2 401 11L399 235Q400 241 392 239L180.45000000000002 238L2 239Z" fill="#F4EBD8" stroke="#F4EBD8" stroke-width="0" stroke-linecap="round" stroke-linejoin="round" /><path d="M3 5Q104.26 -1 200.5 2L396 1Q402 2 401 11L399 235Q400 241 392 239L180.45000000000002 238L2 239Z" fill="url(#worldPaper)" stroke="#F4EBD8" stroke-width="0" stroke-linecap="round" stroke-linejoin="round" opacity=".13" /></g><g opacity="1.00000" transform="translate(63.0000 9.0000) rotate(-3.0000) scale(1.00000 1.00000)"><path d="M3 5Q81.9 -1 157.5 2L310 1Q316 2 315 11L313 55Q314 61 306 59L141.75 58L2 59Z" fill="#202C32" stroke="#202C32" stroke-width="0" stroke-linecap="round" stroke-linejoin="round" transform="translate(5 7)" opacity=".15" /><path d="M3 5Q81.9 -1 157.5 2L310 1Q316 2 315 11L313 55Q314 61 306 59L141.75 58L2 59Z" fill="#DCCDB3" stroke="#DCCDB3" stroke-width="0" stroke-linecap="round" stroke-linejoin="round" transform="translate(2 3)" /><path d="M3 5Q81.9 -1 157.5 2L310 1Q316 2 315 11L313 55Q314 61 306 59L141.75 58L2 59Z" fill="#F4EBD8" stroke="#F4EBD8" stroke-width="0" stroke-linecap="round" stroke-linejoin="round" /><path d="M3 5Q81.9 -1 157.5 2L310 1Q316 2 315 11L313 55Q314 61 306 59L141.75 58L2 59Z" fill="url(#worldPaper)" stroke="#F4EBD8" stroke-width="0" stroke-linecap="round" stroke-linejoin="round" opacity=".13" /><text x="157" y="43" font-family="Inter" font-size="38" font-weight="900" fill="#254D50" text-anchor="middle">PREVIEW</text></g></g><g opacity="1.00000" transform="translate(126.0000 612.0000) rotate(4.0000) scale(1.00000 1.00000)"><path d="M3 5Q116.22 -1 223.5 2L442 1Q448 2 447 11L445 254Q446 260 438 258L201.15 257L2 258Z" fill="#202C32" stroke="#202C32" stroke-width="0" stroke-linecap="round" stroke-linejoin="round" transform="translate(5 7)" opacity=".15" /><path d="M3 5Q116.22 -1 223.5 2L442 1Q448 2 447 11L445 254Q446 260 438 258L201.15 257L2 258Z" fill="#DCCDB3" stroke="#DCCDB3" stroke-width="0" stroke-linecap="round" stroke-linejoin="round" transform="translate(2 3)" /><path d="M3 5Q116.22 -1 223.5 2L442 1Q448 2 447 11L445 254Q446 260 438 258L201.15 257L2 258Z" fill="#554565" stroke="#554565" stroke-width="0" stroke-linecap="round" stroke-linejoin="round" /><path d="M3 5Q116.22 -1 223.5 2L442 1Q448 2 447 11L445 254Q446 260 438 258L201.15 257L2 258Z" fill="url(#worldPaper)" stroke="#554565" stroke-width="0" stroke-linecap="round" stroke-linejoin="round" opacity=".13" /><rect x="44" y="101" width="96" height="99" rx="16" fill="#F4EBD8" /><circle cx="92" cy="149" r="28" fill="none" stroke="#64869A" stroke-width="5" stroke-dasharray="8 6" /><rect x="171" y="101" width="96" height="99" rx="16" fill="#F4EBD8" /><circle cx="219" cy="149" r="28" fill="none" stroke="#64869A" stroke-width="5" stroke-dasharray="8 6" /><rect x="298" y="101" width="96" height="99" rx="16" fill="#F4EBD8" /><circle cx="346" cy="149" r="28" fill="none" stroke="#64869A" stroke-width="5" stroke-dasharray="8 6" /><path d="M105 216H338" fill="none" stroke="#DCCDB3" stroke-width="7" stroke-linecap="round" stroke-linejoin="round" /><g opacity="1.00000" transform="translate(60.0000 16.0000) rotate(2.0000) scale(1.00000 1.00000)"><path d="M3 5Q85.02 -1 163.5 2L322 1Q328 2 327 11L325 58Q326 64 318 62L147.15 61L2 62Z" fill="#202C32" stroke="#202C32" stroke-width="0" stroke-linecap="round" stroke-linejoin="round" transform="translate(5 7)" opacity=".15" /><path d="M3 5Q85.02 -1 163.5 2L322 1Q328 2 327 11L325 58Q326 64 318 62L147.15 61L2 62Z" fill="#DCCDB3" stroke="#DCCDB3" stroke-width="0" stroke-linecap="round" stroke-linejoin="round" transform="translate(2 3)" /><path d="M3 5Q85.02 -1 163.5 2L322 1Q328 2 327 11L325 58Q326 64 318 62L147.15 61L2 62Z" fill="#F4EBD8" stroke="#F4EBD8" stroke-width="0" stroke-linecap="round" stroke-linejoin="round" /><path d="M3 5Q85.02 -1 163.5 2L322 1Q328 2 327 11L325 58Q326 64 318 62L147.15 61L2 62Z" fill="url(#worldPaper)" stroke="#F4EBD8" stroke-width="0" stroke-linecap="round" stroke-linejoin="round" opacity=".13" /><text x="164" y="44" font-family="Inter" font-size="36" font-weight="900" fill="#554565" text-anchor="middle">PLANNED</text></g><path d="M12 239H436" fill="none" stroke="#DCCDB3" stroke-width="4" stroke-linecap="round" stroke-linejoin="round" stroke-dasharray="13 9" /></g></g></svg>
