<svg xmlns="http://www.w3.org/2000/svg" width="625" height="648" viewBox="0 0 625 648"><defs><pattern id="paperSurface" width="2048" height="2048" patternUnits="userSpaceOnUse"><image href="../materials/paper.png" width="2048" height="2048"/></pattern></defs><rect x="5" y="8" width="620" height="640" rx="4" fill="#202C32" opacity=".2"/><rect x="0" y="0" width="620" height="640" rx="4" fill="#F4EBD8"/><rect x="0" y="0" width="620" height="640" rx="4" fill="url(#paperSurface)" opacity=".42"/><text x="30" y="72" font-family="Inter" font-weight="700" font-size="43" fill="#202C32" text-anchor="start" >A REAL RUN</text><path d="M30 133H585" stroke="#A69E88" stroke-width="11" opacity=".6"/><path d="M30 178H550" stroke="#A69E88" stroke-width="11" opacity=".6"/><path d="M30 223H515" stroke="#A69E88" stroke-width="11" opacity=".6"/><path d="M30 268H585" stroke="#A69E88" stroke-width="11" opacity=".6"/><path d="M30 313H550" stroke="#A69E88" stroke-width="11" opacity=".6"/><path d="M30 358H515" stroke="#A69E88" stroke-width="11" opacity=".6"/><path d="M30 403H585" stroke="#A69E88" stroke-width="11" opacity=".6"/><path d="M30 448H550" stroke="#A69E88" stroke-width="11" opacity=".6"/><path d="M30 493H515" stroke="#A69E88" stroke-width="11" opacity=".6"/><path d="M30 538H585" stroke="#A69E88" stroke-width="11" opacity=".6"/><rect x="70" y="170" width="490" height="241" rx="1" fill="#202C32" opacity=".2"/><rect x="65" y="162" width="490" height="241" rx="1" fill="#DAB967"/><rect x="65" y="162" width="490" height="241" rx="1" fill="url(#paperSurface)" opacity=".42"/><text x="310" y="273" font-family="Inter" font-weight="700" font-size="41" fill="#202C32" text-anchor="middle" >SOURCE EXAMPLE</text><text x="310" y="327" font-family="Inter" font-weight="700" font-size="24" fill="#202C32" text-anchor="middle" >not an independently verified test</text></svg>