<svg xmlns="http://www.w3.org/2000/svg" width="570" height="215" viewBox="0 0 570 215" role="img" aria-label="Three-answer evaluation board">
<title>Three-answer evaluation board</title>
<defs>
<pattern id="sceneGrain" width="43" height="39" patternUnits="userSpaceOnUse">
 <circle cx="7" cy="9" r="1.1" fill="#F4EBD8" opacity=".13"/>
 <circle cx="30" cy="20" r=".8" fill="#F4EBD8" opacity=".12"/>
 <circle cx="17" cy="33" r="1" fill="#202C32" opacity=".11"/>
 <path d="M25 5 l3 .5 M4 28 l2 -.5" stroke="#F4EBD8" stroke-width=".8" opacity=".16"/>
 <ellipse cx="38" cy="31" rx="2.4" ry=".8" fill="#F4EBD8" opacity=".11"/>
 <path d="M14 19 l4 -.7 M34 8 l-2 1.4" stroke="#202C32" stroke-width=".7" opacity=".13"/>
</pattern>
<pattern id="paperSpeckle" width="29" height="31" patternUnits="userSpaceOnUse">
 <circle cx="5" cy="7" r=".8" fill="#725343" opacity=".18"/>
 <circle cx="19" cy="17" r="1.1" fill="#725343" opacity=".13"/>
 <path d="M10 26 l3 -.5" stroke="#725343" stroke-width=".7" opacity=".13"/>
 <ellipse cx="24" cy="5" rx="1.9" ry=".7" fill="#725343" opacity=".13"/>
 <path d="M3 19 l2 .8 M20 28 l2 -1" stroke="#725343" stroke-width=".6" opacity=".14"/>
</pattern>
<pattern id="woodFiber" width="59" height="41" patternUnits="userSpaceOnUse">
 <path d="M5 12 q13 -3 26 0 M34 29 q10 2 19 -1 M16 34 l8 -1" fill="none" stroke="#725343" stroke-width="1.3" opacity=".18"/>
 <circle cx="47" cy="10" r="1" fill="#F4EBD8" opacity=".18"/>
 <circle cx="9" cy="28" r=".8" fill="#202C32" opacity=".12"/>
</pattern>
</defs>
<path d="M19 13 Q290 -3 551 14 L554 132 Q291 145 18 133 Z" transform="translate(6 8)" fill="#252A32" opacity=".19"/><path d="M19 13 Q290 -3 551 14 L554 132 Q291 145 18 133 Z" transform="translate(2 4)" fill="#DCCDB3" opacity=".6"/><path d="M19 13 Q290 -3 551 14 L554 132 Q291 145 18 133 Z" fill="#F4EBD8"/><path d="M19 13 Q290 -3 551 14 L554 132 Q291 145 18 133 Z" fill="url(#paperSpeckle)" opacity=".72"/><path d="M19 13 Q290 -3 551 14 L554 132 Q291 145 18 133 Z" fill="none" stroke="#DCCDB3" stroke-width="2" opacity=".38"/><text x="177" y="46" font-family="DejaVu Sans, Arial, sans-serif" font-size="23" font-weight="700" fill="#202C32" letter-spacing="1">ANSWER TRIALS</text><path d="M63 66 H507" fill="none" stroke="#DCCDB3" stroke-width="4" opacity="0.8" stroke-linecap="round" stroke-linejoin="round"/><path d="M47 78 Q101.0 75 163 78 Q172 79 171 85 Q173 97.2 170 112 Q169 121 163 120 Q110.3 122 47 119 Q38 118 39 112 Q37 95.5 40 85 Q41 79 47 78 Z" transform="translate(6 8)" fill="#252A32" opacity=".19"/><path d="M47 78 Q101.0 75 163 78 Q172 79 171 85 Q173 97.2 170 112 Q169 121 163 120 Q110.3 122 47 119 Q38 118 39 112 Q37 95.5 40 85 Q41 79 47 78 Z" transform="translate(2 4)" fill="#DCCDB3" opacity=".6"/><path d="M47 78 Q101.0 75 163 78 Q172 79 171 85 Q173 97.2 170 112 Q169 121 163 120 Q110.3 122 47 119 Q38 118 39 112 Q37 95.5 40 85 Q41 79 47 78 Z" fill="#64869A"/><path d="M47 78 Q101.0 75 163 78 Q172 79 171 85 Q173 97.2 170 112 Q169 121 163 120 Q110.3 122 47 119 Q38 118 39 112 Q37 95.5 40 85 Q41 79 47 78 Z" fill="url(#paperSpeckle)" opacity=".72"/><path d="M47 78 Q101.0 75 163 78 Q172 79 171 85 Q173 97.2 170 112 Q169 121 163 120 Q110.3 122 47 119 Q38 118 39 112 Q37 95.5 40 85 Q41 79 47 78 Z" fill="none" stroke="#DCCDB3" stroke-width="2" opacity=".38"/><text x="77" y="105" font-family="DejaVu Sans, Arial, sans-serif" font-size="25" font-weight="700" fill="#F4EBD8">A</text><path d="M221 78 Q275.0 75 337 78 Q346 79 345 85 Q347 97.2 344 112 Q343 121 337 120 Q284.3 122 221 119 Q212 118 213 112 Q211 95.5 214 85 Q215 79 221 78 Z" transform="translate(6 8)" fill="#252A32" opacity=".19"/><path d="M221 78 Q275.0 75 337 78 Q346 79 345 85 Q347 97.2 344 112 Q343 121 337 120 Q284.3 122 221 119 Q212 118 213 112 Q211 95.5 214 85 Q215 79 221 78 Z" transform="translate(2 4)" fill="#DCCDB3" opacity=".6"/><path d="M221 78 Q275.0 75 337 78 Q346 79 345 85 Q347 97.2 344 112 Q343 121 337 120 Q284.3 122 221 119 Q212 118 213 112 Q211 95.5 214 85 Q215 79 221 78 Z" fill="#318E85"/><path d="M221 78 Q275.0 75 337 78 Q346 79 345 85 Q347 97.2 344 112 Q343 121 337 120 Q284.3 122 221 119 Q212 118 213 112 Q211 95.5 214 85 Q215 79 221 78 Z" fill="url(#paperSpeckle)" opacity=".72"/><path d="M221 78 Q275.0 75 337 78 Q346 79 345 85 Q347 97.2 344 112 Q343 121 337 120 Q284.3 122 221 119 Q212 118 213 112 Q211 95.5 214 85 Q215 79 221 78 Z" fill="none" stroke="#DCCDB3" stroke-width="2" opacity=".38"/><text x="251" y="105" font-family="DejaVu Sans, Arial, sans-serif" font-size="25" font-weight="700" fill="#F4EBD8">B</text><path d="M395 78 Q449.0 75 511 78 Q520 79 519 85 Q521 97.2 518 112 Q517 121 511 120 Q458.3 122 395 119 Q386 118 387 112 Q385 95.5 388 85 Q389 79 395 78 Z" transform="translate(6 8)" fill="#252A32" opacity=".19"/><path d="M395 78 Q449.0 75 511 78 Q520 79 519 85 Q521 97.2 518 112 Q517 121 511 120 Q458.3 122 395 119 Q386 118 387 112 Q385 95.5 388 85 Q389 79 395 78 Z" transform="translate(2 4)" fill="#DCCDB3" opacity=".6"/><path d="M395 78 Q449.0 75 511 78 Q520 79 519 85 Q521 97.2 518 112 Q517 121 511 120 Q458.3 122 395 119 Q386 118 387 112 Q385 95.5 388 85 Q389 79 395 78 Z" fill="#BB725C"/><path d="M395 78 Q449.0 75 511 78 Q520 79 519 85 Q521 97.2 518 112 Q517 121 511 120 Q458.3 122 395 119 Q386 118 387 112 Q385 95.5 388 85 Q389 79 395 78 Z" fill="url(#paperSpeckle)" opacity=".72"/><path d="M395 78 Q449.0 75 511 78 Q520 79 519 85 Q521 97.2 518 112 Q517 121 511 120 Q458.3 122 395 119 Q386 118 387 112 Q385 95.5 388 85 Q389 79 395 78 Z" fill="none" stroke="#DCCDB3" stroke-width="2" opacity=".38"/><text x="425" y="105" font-family="DejaVu Sans, Arial, sans-serif" font-size="25" font-weight="700" fill="#F4EBD8">C</text><path d="M106 132 Q178 183 290 201 Q404 178 465 132" fill="none" stroke="#DCCDB3" stroke-width="8" opacity=".8"/><path d="M290 203 L279 188 L300 188 Z" fill="#318E85"/>
</svg>
