<svg xmlns="http://www.w3.org/2000/svg" width="900" height="255" viewBox="0 0 900 255" role="img" aria-label="Shallow paper conduit set">
<title>Shallow paper conduit set</title>
<defs>
<pattern id="sceneGrain" width="43" height="39" patternUnits="userSpaceOnUse">
 <circle cx="7" cy="9" r="1.1" fill="#F4EBD8" opacity=".13"/>
 <circle cx="30" cy="20" r=".8" fill="#F4EBD8" opacity=".12"/>
 <circle cx="17" cy="33" r="1" fill="#202C32" opacity=".11"/>
 <path d="M25 5 l3 .5 M4 28 l2 -.5" stroke="#F4EBD8" stroke-width=".8" opacity=".16"/>
 <ellipse cx="38" cy="31" rx="2.4" ry=".8" fill="#F4EBD8" opacity=".11"/>
 <path d="M14 19 l4 -.7 M34 8 l-2 1.4" stroke="#202C32" stroke-width=".7" opacity=".13"/>
</pattern>
<pattern id="paperSpeckle" width="29" height="31" patternUnits="userSpaceOnUse">
 <circle cx="5" cy="7" r=".8" fill="#725343" opacity=".18"/>
 <circle cx="19" cy="17" r="1.1" fill="#725343" opacity=".13"/>
 <path d="M10 26 l3 -.5" stroke="#725343" stroke-width=".7" opacity=".13"/>
 <ellipse cx="24" cy="5" rx="1.9" ry=".7" fill="#725343" opacity=".13"/>
 <path d="M3 19 l2 .8 M20 28 l2 -1" stroke="#725343" stroke-width=".6" opacity=".14"/>
</pattern>
<pattern id="woodFiber" width="59" height="41" patternUnits="userSpaceOnUse">
 <path d="M5 12 q13 -3 26 0 M34 29 q10 2 19 -1 M16 34 l8 -1" fill="none" stroke="#725343" stroke-width="1.3" opacity=".18"/>
 <circle cx="47" cy="10" r="1" fill="#F4EBD8" opacity=".18"/>
 <circle cx="9" cy="28" r=".8" fill="#202C32" opacity=".12"/>
</pattern>
</defs>
<path d="M53 211 L53 66 Q54 39 79 39 H379 Q401 41 401 67 V194 M488 210 L488 95 Q490 75 512 75 H800 Q823 75 823 95 V210" fill="none" stroke="#3C5D68" stroke-width="31" stroke-linecap="round" stroke-linejoin="round"/><path d="M53 211 L53 66 Q54 39 79 39 H379 Q401 41 401 67 V194 M488 210 L488 95 Q490 75 512 75 H800 Q823 75 823 95 V210" fill="none" stroke="#DCCDB3" stroke-width="20" stroke-linecap="round" stroke-linejoin="round"/><path d="M54 211 L54 66 Q54 40 79 40 H378 Q400 41 400 66 V192 M488 209 L488 95 Q490 76 513 76 H799 Q822 76 822 95 V209" fill="none" stroke="#F4EBD8" stroke-width="15" stroke-linecap="round" stroke-linejoin="round"/><rect x="39" y="103" width="27" height="34" rx="5" fill="#318E85" opacity=".64"/><rect x="386" y="111" width="27" height="34" rx="5" fill="#318E85" opacity=".64"/><rect x="475" y="135" width="27" height="34" rx="5" fill="#318E85" opacity=".64"/><rect x="808" y="129" width="27" height="34" rx="5" fill="#318E85" opacity=".64"/>
</svg>
