<svg xmlns="http://www.w3.org/2000/svg" width="360" height="640" viewBox="0 0 720 1280"><defs>
<pattern id="grain" width="31" height="29" patternUnits="userSpaceOnUse">
  <circle cx="4" cy="6" r="1.2" fill="#806F5D" opacity=".16"/>
  <circle cx="23" cy="12" r=".85" fill="#806F5D" opacity=".13"/>
  <circle cx="12" cy="24" r=".7" fill="#806F5D" opacity=".12"/>
  <path d="M18 3 l2 .7 M5 20 l2 -.4" stroke="#806F5D" stroke-width=".8" opacity=".12"/>
  <circle cx="28" cy="27" r="1.5" fill="#FFFFFF" opacity=".16"/>
</pattern>
<pattern id="darkGrain" width="29" height="31" patternUnits="userSpaceOnUse">
  <circle cx="7" cy="9" r=".9" fill="#F4EBD8" opacity=".09"/>
  <circle cx="20" cy="23" r=".7" fill="#F4EBD8" opacity=".08"/>
</pattern>
<pattern id="worldPaper" width="2048" height="2048" patternUnits="userSpaceOnUse"><image href="assets/materials/world-paper.webp" width="2048" height="2048"/></pattern><filter id="pushBlur" x="-10%" width="120%"><feGaussianBlur stdDeviation="3 0"/></filter></defs><rect x="0.00" y="0.00" width="720.00" height="1280.00" rx="0" fill="#91A99F"/><g opacity="0.1900" transform="translate(0.000 0.000) rotate(0.000) scale(1.00000 1.00000)"><rect x="0.00" y="0.00" width="720.00" height="1280.00" rx="0" fill="url(#worldPaper)"/></g><path d="M0 967L170 969L435 966L720 968V1280H0Z" fill="#68716C" stroke="#68716C" stroke-width="0" stroke-linecap="round" stroke-linejoin="round" /><path d="M0 971L191 973L459 970L720 972" fill="none" stroke="#969B89" stroke-width="13" stroke-linecap="round" stroke-linejoin="round" /><path d="M0 984H720" fill="none" stroke="#493D36" stroke-width="2" stroke-linecap="round" stroke-linejoin="round" /><g opacity="0.0900" transform="translate(0.000 0.000) rotate(0.000) scale(1.00000 1.00000)"><rect x="0.00" y="987.00" width="720.00" height="293.00" rx="0" fill="url(#worldPaper)"/></g><path d="M37 991Q134 988 259 992T442 990" fill="none" stroke="#ABB2A6" stroke-width="1.2" stroke-linecap="round" stroke-linejoin="round" opacity=".17"/><path d="M288 1120Q385 1117 510 1121T693 1119" fill="none" stroke="#ABB2A6" stroke-width="1.2" stroke-linecap="round" stroke-linejoin="round" opacity=".17"/><path d="M71 1248Q168 1245 293 1249T476 1247" fill="none" stroke="#ABB2A6" stroke-width="1.2" stroke-linecap="round" stroke-linejoin="round" opacity=".17"/><g opacity="1.0000" transform="translate(12.000 369.000) rotate(8.000) scale(1.00000 1.00000)"><path d="M2 3.25L15.860000000000003 .5L49 1.25L52 25.8L50.2 59L36.92 60.375L14.560000000000002 58.8L.5 58Z" fill="#211923" stroke="#211923" stroke-width="1" stroke-linecap="round" stroke-linejoin="round" transform="translate(4 6)" opacity=".15"/><path d="M2 3.25L15.860000000000003 .5L49 1.25L52 25.8L50.2 59L36.92 60.375L14.560000000000002 58.8L.5 58Z" fill="#CBBEAA" stroke="#CBBEAA" stroke-width="1" stroke-linecap="round" stroke-linejoin="round" transform="translate(1.5 2.4)"/><path d="M2 3.25L15.860000000000003 .5L49 1.25L52 25.8L50.2 59L36.92 60.375L14.560000000000002 58.8L.5 58Z" fill="#E6C253" stroke="#E6C253" stroke-width="0.7" stroke-linecap="round" stroke-linejoin="round" /><path d="M2 3.25L15.860000000000003 .5L49 1.25L52 25.8L50.2 59L36.92 60.375L14.560000000000002 58.8L.5 58Z" fill="url(#worldPaper)" stroke="#E6C253" stroke-width="0" stroke-linecap="round" stroke-linejoin="round" opacity="0.07500000000000001"/></g><g opacity="1.0000" transform="translate(650.000 479.000) rotate(1.000) scale(1.00000 1.00000)"><path d="M2 3.05L14.560000000000002 .5L49 1.05L52 25.8L50.2 59L36.92 60.315L14.560000000000002 58.8L.5 58Z" fill="#211923" stroke="#211923" stroke-width="1" stroke-linecap="round" stroke-linejoin="round" transform="translate(4 6)" opacity=".15"/><path d="M2 3.05L14.560000000000002 .5L49 1.05L52 25.8L50.2 59L36.92 60.315L14.560000000000002 58.8L.5 58Z" fill="#CBBEAA" stroke="#CBBEAA" stroke-width="1" stroke-linecap="round" stroke-linejoin="round" transform="translate(1.5 2.4)"/><path d="M2 3.05L14.560000000000002 .5L49 1.05L52 25.8L50.2 59L36.92 60.315L14.560000000000002 58.8L.5 58Z" fill="#DC8159" stroke="#DC8159" stroke-width="0.7" stroke-linecap="round" stroke-linejoin="round" /><path d="M2 3.05L14.560000000000002 .5L49 1.05L52 25.8L50.2 59L36.92 60.315L14.560000000000002 58.8L.5 58Z" fill="url(#worldPaper)" stroke="#DC8159" stroke-width="0" stroke-linecap="round" stroke-linejoin="round" opacity="0.07500000000000001"/></g><g opacity="1.0000" transform="translate(637.000 778.000) rotate(-6.000) scale(1.00000 1.00000)"><path d="M2 3.65L18.46 .5L49 1.65L52 25.8L50.2 59L36.92 60.495L14.560000000000002 58.8L.5 58Z" fill="#211923" stroke="#211923" stroke-width="1" stroke-linecap="round" stroke-linejoin="round" transform="translate(4 6)" opacity=".15"/><path d="M2 3.65L18.46 .5L49 1.65L52 25.8L50.2 59L36.92 60.495L14.560000000000002 58.8L.5 58Z" fill="#CBBEAA" stroke="#CBBEAA" stroke-width="1" stroke-linecap="round" stroke-linejoin="round" transform="translate(1.5 2.4)"/><path d="M2 3.65L18.46 .5L49 1.65L52 25.8L50.2 59L36.92 60.495L14.560000000000002 58.8L.5 58Z" fill="#A9C9B7" stroke="#A9C9B7" stroke-width="0.7" stroke-linecap="round" stroke-linejoin="round" /><path d="M2 3.65L18.46 .5L49 1.65L52 25.8L50.2 59L36.92 60.495L14.560000000000002 58.8L.5 58Z" fill="url(#worldPaper)" stroke="#A9C9B7" stroke-width="0" stroke-linecap="round" stroke-linejoin="round" opacity="0.07500000000000001"/></g><rect x="144.00" y="320.00" width="503.00" height="632.00" rx="16" fill="#211923"/><text x="179.00" y="376.00" font-family="Inter" font-weight="900" font-size="30.00" fill="#EEE5D3" text-anchor="start" data-layout-allow-overlap="">English</text><text x="605.00" y="375.00" font-family="Inter" font-weight="700" font-size="16.00" fill="#ACA0A8" text-anchor="end" data-layout-allow-overlap="">ORIGINAL</text><rect x="164.00" y="402.00" width="463.00" height="202.00" rx="8" fill="#362B37"/><rect x="185.00" y="492.06" width="4.49" height="12.88" rx="3" fill="#B9ADB6"/><rect x="194.36" y="489.84" width="4.49" height="17.31" rx="3" fill="#B9ADB6"/><rect x="203.71" y="492.35" width="4.49" height="12.30" rx="3" fill="#B9ADB6"/><rect x="213.07" y="476.69" width="4.49" height="43.61" rx="3" fill="#B9ADB6"/><rect x="222.42" y="492.53" width="4.49" height="11.94" rx="3" fill="#B9ADB6"/><rect x="231.78" y="487.28" width="4.49" height="22.44" rx="3" fill="#B9ADB6"/><rect x="241.13" y="476.10" width="4.49" height="44.81" rx="3" fill="#B9ADB6"/><rect x="250.49" y="490.13" width="4.49" height="16.73" rx="3" fill="#B9ADB6"/><rect x="259.84" y="474.49" width="4.49" height="48.03" rx="3" fill="#B9ADB6"/><rect x="269.20" y="481.82" width="4.49" height="33.36" rx="3" fill="#B9ADB6"/><rect x="278.56" y="485.25" width="4.49" height="26.49" rx="3" fill="#B9ADB6"/><rect x="287.91" y="464.27" width="4.49" height="68.46" rx="3" fill="#B9ADB6"/><rect x="297.27" y="483.99" width="4.49" height="29.03" rx="3" fill="#B9ADB6"/><rect x="306.62" y="481.34" width="4.49" height="34.32" rx="3" fill="#B9ADB6"/><rect x="315.98" y="466.33" width="4.49" height="64.33" rx="3" fill="#B9ADB6"/><rect x="325.33" y="482.27" width="4.49" height="32.47" rx="3" fill="#B9ADB6"/><rect x="334.69" y="459.12" width="4.49" height="78.75" rx="3" fill="#B9ADB6"/><rect x="344.04" y="482.36" width="4.49" height="32.29" rx="3" fill="#B9ADB6"/><rect x="353.40" y="486.49" width="4.49" height="24.02" rx="3" fill="#B9ADB6"/><rect x="362.76" y="453.11" width="4.49" height="90.79" rx="3" fill="#B9ADB6"/><rect x="372.11" y="479.59" width="4.49" height="37.82" rx="3" fill="#B9ADB6"/><rect x="381.47" y="462.20" width="4.49" height="72.61" rx="3" fill="#B9ADB6"/><rect x="390.82" y="487.98" width="4.49" height="21.03" rx="3" fill="#B9ADB6"/><rect x="400.18" y="481.89" width="4.49" height="33.21" rx="3" fill="#B9ADB6"/><rect x="409.53" y="448.82" width="4.49" height="99.37" rx="3" fill="#B9ADB6"/><rect x="418.89" y="480.61" width="4.49" height="35.79" rx="3" fill="#B9ADB6"/><rect x="428.24" y="470.62" width="4.49" height="55.77" rx="3" fill="#B9ADB6"/><rect x="437.60" y="478.05" width="4.49" height="40.91" rx="3" fill="#B9ADB6"/><rect x="446.96" y="484.81" width="4.49" height="27.39" rx="3" fill="#B9ADB6"/><rect x="456.31" y="455.85" width="4.49" height="85.31" rx="3" fill="#B9ADB6"/><rect x="465.67" y="487.17" width="4.49" height="22.65" rx="3" fill="#B9ADB6"/><rect x="475.02" y="479.56" width="4.49" height="37.89" rx="3" fill="#B9ADB6"/><rect x="484.38" y="470.32" width="4.49" height="56.36" rx="3" fill="#B9ADB6"/><rect x="493.73" y="487.97" width="4.49" height="21.07" rx="3" fill="#B9ADB6"/><rect x="503.09" y="470.53" width="4.49" height="55.94" rx="3" fill="#B9ADB6"/><rect x="512.44" y="483.93" width="4.49" height="29.14" rx="3" fill="#B9ADB6"/><rect x="521.80" y="485.91" width="4.49" height="25.17" rx="3" fill="#B9ADB6"/><rect x="531.16" y="470.37" width="4.49" height="56.27" rx="3" fill="#B9ADB6"/><rect x="540.51" y="486.78" width="4.49" height="23.44" rx="3" fill="#B9ADB6"/><rect x="549.87" y="485.66" width="4.49" height="25.67" rx="3" fill="#B9ADB6"/><rect x="559.22" y="481.25" width="4.49" height="34.51" rx="3" fill="#B9ADB6"/><rect x="568.58" y="490.36" width="4.49" height="16.28" rx="3" fill="#B9ADB6"/><rect x="577.93" y="480.20" width="4.49" height="36.60" rx="3" fill="#B9ADB6"/><rect x="587.29" y="491.72" width="4.49" height="13.56" rx="3" fill="#B9ADB6"/><rect x="596.64" y="495.76" width="4.49" height="5.48" rx="3" fill="#B9ADB6"/><path d="M281.3142857142857 421V585" fill="none" stroke="#F293B6" stroke-width="2" stroke-linecap="round" stroke-linejoin="round" /><text x="179.00" y="660.00" font-family="Inter" font-weight="900" font-size="32.00" fill="#F293B6" text-anchor="start" data-layout-allow-overlap="">Español</text><text x="606.00" y="658.00" font-family="Inter" font-weight="700" font-size="17.00" fill="#F293B6" text-anchor="end" data-layout-allow-overlap="">DUBBED</text><rect x="164.00" y="680.00" width="463.00" height="183.00" rx="8" fill="#372332" stroke="#F293B6" stroke-width="2"/><rect x="185.00" y="758.89" width="4.49" height="5.22" rx="3" fill="#F293B6"/><rect x="194.36" y="755.31" width="4.49" height="12.39" rx="3" fill="#F293B6"/><rect x="203.71" y="741.56" width="4.49" height="39.88" rx="3" fill="#F293B6"/><rect x="213.07" y="754.52" width="4.49" height="13.97" rx="3" fill="#F293B6"/><rect x="222.42" y="746.25" width="4.49" height="30.50" rx="3" fill="#F293B6"/><rect x="231.78" y="751.08" width="4.49" height="20.84" rx="3" fill="#F293B6"/><rect x="241.13" y="749.13" width="4.49" height="24.74" rx="3" fill="#F293B6"/><rect x="250.49" y="729.60" width="4.49" height="63.80" rx="3" fill="#F293B6"/><rect x="259.84" y="752.98" width="4.49" height="17.04" rx="3" fill="#F293B6"/><rect x="269.20" y="746.08" width="4.49" height="30.83" rx="3" fill="#F293B6"/><rect x="278.56" y="739.50" width="4.49" height="44.01" rx="3" fill="#F293B6"/><rect x="287.91" y="748.68" width="4.49" height="25.64" rx="3" fill="#F293B6"/><rect x="297.27" y="728.51" width="4.49" height="65.98" rx="3" fill="#F293B6"/><rect x="306.62" y="747.70" width="4.49" height="27.60" rx="3" fill="#F293B6"/><rect x="315.98" y="748.41" width="4.49" height="26.18" rx="3" fill="#F293B6"/><rect x="325.33" y="727.77" width="4.49" height="67.46" rx="3" fill="#F293B6"/><rect x="334.69" y="751.75" width="4.49" height="19.50" rx="3" fill="#F293B6"/><rect x="344.04" y="736.93" width="4.49" height="49.15" rx="3" fill="#F293B6"/><rect x="353.40" y="735.45" width="4.49" height="52.10" rx="3" fill="#F293B6"/><rect x="362.76" y="749.48" width="4.49" height="24.04" rx="3" fill="#F293B6"/><rect x="372.11" y="721.40" width="4.49" height="80.20" rx="3" fill="#F293B6"/><rect x="381.47" y="747.51" width="4.49" height="27.98" rx="3" fill="#F293B6"/><rect x="390.82" y="749.05" width="4.49" height="24.89" rx="3" fill="#F293B6"/><rect x="400.18" y="723.55" width="4.49" height="75.90" rx="3" fill="#F293B6"/><rect x="409.53" y="748.79" width="4.49" height="25.41" rx="3" fill="#F293B6"/><rect x="418.89" y="723.42" width="4.49" height="76.16" rx="3" fill="#F293B6"/><rect x="428.24" y="749.16" width="4.49" height="24.67" rx="3" fill="#F293B6"/><rect x="437.60" y="745.86" width="4.49" height="31.29" rx="3" fill="#F293B6"/><rect x="446.96" y="718.23" width="4.49" height="86.55" rx="3" fill="#F293B6"/><rect x="456.31" y="748.77" width="4.49" height="25.45" rx="3" fill="#F293B6"/><rect x="465.67" y="732.36" width="4.49" height="58.28" rx="3" fill="#F293B6"/><rect x="475.02" y="748.89" width="4.49" height="25.21" rx="3" fill="#F293B6"/><rect x="484.38" y="745.50" width="4.49" height="32.01" rx="3" fill="#F293B6"/><rect x="493.73" y="723.02" width="4.49" height="76.97" rx="3" fill="#F293B6"/><rect x="503.09" y="751.98" width="4.49" height="19.04" rx="3" fill="#F293B6"/><rect x="512.44" y="743.54" width="4.49" height="35.93" rx="3" fill="#F293B6"/><rect x="521.80" y="743.54" width="4.49" height="35.91" rx="3" fill="#F293B6"/><rect x="531.16" y="751.15" width="4.49" height="20.69" rx="3" fill="#F293B6"/><rect x="540.51" y="736.12" width="4.49" height="50.75" rx="3" fill="#F293B6"/><rect x="549.87" y="753.22" width="4.49" height="16.56" rx="3" fill="#F293B6"/><rect x="559.22" y="752.67" width="4.49" height="17.66" rx="3" fill="#F293B6"/><rect x="568.58" y="744.59" width="4.49" height="33.81" rx="3" fill="#F293B6"/><rect x="577.93" y="756.92" width="4.49" height="9.17" rx="3" fill="#F293B6"/><rect x="587.29" y="751.81" width="4.49" height="19.37" rx="3" fill="#F293B6"/><rect x="596.64" y="755.32" width="4.49" height="12.35" rx="3" fill="#F293B6"/><path d="M186 699V847" fill="none" stroke="#EEE5D3" stroke-width="2" stroke-linecap="round" stroke-linejoin="round" /><text x="177.00" y="914.00" font-family="Inter" font-weight="700" font-size="19.00" fill="#F293B6" text-anchor="start" data-layout-allow-overlap="">Español</text><text x="299.00" y="914.00" font-family="Inter" font-weight="700" font-size="17.00" fill="#EEE5D3" text-anchor="start" data-layout-allow-overlap="">Français</text><text x="429.00" y="914.00" font-family="Inter" font-weight="700" font-size="17.00" fill="#EEE5D3" text-anchor="start" data-layout-allow-overlap="">中文</text><text x="523.00" y="914.00" font-family="Inter" font-weight="700" font-size="17.00" fill="#EEE5D3" text-anchor="start" data-layout-allow-overlap="">日本語</text><g data-quality-reaction="plant" transform="translate(0.479798 -0.319865) translate(660 938) rotate(0.213243) translate(-660 -938)"><g opacity="1.0000" transform="translate(660.000 938.000) rotate(0.000) scale(0.52000 0.52000)"><path d="M0 0L12 61L63 61L77 0Z" fill="#C6845D" stroke="#C6845D" stroke-width="2" stroke-linecap="round" stroke-linejoin="round" /><rect x="-4.00" y="-8.00" width="87.00" height="14.00" rx="4" fill="#DD9A6D"/><path d="M38 -2Q8 -30 8 -28" fill="none" stroke="#537C58" stroke-width="4" stroke-linecap="round" stroke-linejoin="round" /><g opacity="1.0000" transform="translate(8.000 -14.000) rotate(-34.406) scale(1.00000 1.00000)"><path d="M0 0Q-30 -45 0 -50Q30 -35 0 0Z" fill="#547C56" stroke="#547C56" stroke-width="0" stroke-linecap="round" stroke-linejoin="round" /></g><path d="M38 -2Q23 -30 23 -54" fill="none" stroke="#537C58" stroke-width="4" stroke-linecap="round" stroke-linejoin="round" /><g opacity="1.0000" transform="translate(23.000 -40.000) rotate(-15.000) scale(1.00000 1.00000)"><path d="M0 0Q-30 -45 0 -50Q30 -35 0 0Z" fill="#547C56" stroke="#547C56" stroke-width="0" stroke-linecap="round" stroke-linejoin="round" /></g><path d="M38 -2Q38 -30 38 -80" fill="none" stroke="#537C58" stroke-width="4" stroke-linecap="round" stroke-linejoin="round" /><g opacity="1.0000" transform="translate(38.000 -66.000) rotate(1.648) scale(1.00000 1.00000)"><path d="M0 0Q-30 -45 0 -50Q30 -35 0 0Z" fill="#547C56" stroke="#547C56" stroke-width="0" stroke-linecap="round" stroke-linejoin="round" /></g><path d="M38 -2Q53 -30 53 -54" fill="none" stroke="#537C58" stroke-width="4" stroke-linecap="round" stroke-linejoin="round" /><g opacity="1.0000" transform="translate(53.000 -40.000) rotate(16.781) scale(1.00000 1.00000)"><path d="M0 0Q-30 -45 0 -50Q30 -35 0 0Z" fill="#547C56" stroke="#547C56" stroke-width="0" stroke-linecap="round" stroke-linejoin="round" /></g><path d="M38 -2Q68 -30 68 -28" fill="none" stroke="#537C58" stroke-width="4" stroke-linecap="round" stroke-linejoin="round" /><g opacity="1.0000" transform="translate(68.000 -14.000) rotate(33.035) scale(1.00000 1.00000)"><path d="M0 0Q-30 -45 0 -50Q30 -35 0 0Z" fill="#547C56" stroke="#547C56" stroke-width="0" stroke-linecap="round" stroke-linejoin="round" /></g></g></g><g opacity="1.0000" transform="translate(20.000 183.000) rotate(-0.400) scale(1.00000 1.00000)"><path d="M2 3.05L190.4 .5L677 1.05L680 30.96L678.2 71L482.79999999999995 72.315L190.4 70.8L.5 70Z" fill="#211923" stroke="#211923" stroke-width="1" stroke-linecap="round" stroke-linejoin="round" transform="translate(4 6)" opacity=".15"/><path d="M2 3.05L190.4 .5L677 1.05L680 30.96L678.2 71L482.79999999999995 72.315L190.4 70.8L.5 70Z" fill="#CBBEAA" stroke="#CBBEAA" stroke-width="1" stroke-linecap="round" stroke-linejoin="round" transform="translate(1.5 2.4)"/><path d="M2 3.05L190.4 .5L677 1.05L680 30.96L678.2 71L482.79999999999995 72.315L190.4 70.8L.5 70Z" fill="#EEE5D3" stroke="#EEE5D3" stroke-width="0.7" stroke-linecap="round" stroke-linejoin="round" /><path d="M2 3.05L190.4 .5L677 1.05L680 30.96L678.2 71L482.79999999999995 72.315L190.4 70.8L.5 70Z" fill="url(#worldPaper)" stroke="#EEE5D3" stroke-width="0" stroke-linecap="round" stroke-linejoin="round" opacity="0.07500000000000001"/><g opacity="1.0000" transform="translate(13.000 -7.000) rotate(-10.000) scale(1.00000 1.00000)"><path d="M2 3.65L22.72 .5L61 1.65L64 9.03L62.2 20L45.44 21.495L17.92 19.8L.5 19Z" fill="#211923" stroke="#211923" stroke-width="1" stroke-linecap="round" stroke-linejoin="round" transform="translate(4 6)" opacity=".15"/><path d="M2 3.65L22.72 .5L61 1.65L64 9.03L62.2 20L45.44 21.495L17.92 19.8L.5 19Z" fill="#CBBEAA" stroke="#CBBEAA" stroke-width="1" stroke-linecap="round" stroke-linejoin="round" transform="translate(1.5 2.4)"/><path d="M2 3.65L22.72 .5L61 1.65L64 9.03L62.2 20L45.44 21.495L17.92 19.8L.5 19Z" fill="#C8B078" stroke="#C8B078" stroke-width="0.7" stroke-linecap="round" stroke-linejoin="round" /><path d="M2 3.65L22.72 .5L61 1.65L64 9.03L62.2 20L45.44 21.495L17.92 19.8L.5 19Z" fill="url(#worldPaper)" stroke="#C8B078" stroke-width="0" stroke-linecap="round" stroke-linejoin="round" opacity="0.03"/></g><g opacity="1.0000" transform="translate(598.000 -6.000) rotate(11.000) scale(1.00000 1.00000)"><path d="M2 3.25L21.045 .5L66 1.25L69 8.17L67.2 18L48.989999999999995 19.375L19.32 17.8L.5 17Z" fill="#211923" stroke="#211923" stroke-width="1" stroke-linecap="round" stroke-linejoin="round" transform="translate(4 6)" opacity=".15"/><path d="M2 3.25L21.045 .5L66 1.25L69 8.17L67.2 18L48.989999999999995 19.375L19.32 17.8L.5 17Z" fill="#CBBEAA" stroke="#CBBEAA" stroke-width="1" stroke-linecap="round" stroke-linejoin="round" transform="translate(1.5 2.4)"/><path d="M2 3.25L21.045 .5L66 1.25L69 8.17L67.2 18L48.989999999999995 19.375L19.32 17.8L.5 17Z" fill="#D0BC88" stroke="#D0BC88" stroke-width="0.7" stroke-linecap="round" stroke-linejoin="round" /><path d="M2 3.25L21.045 .5L66 1.25L69 8.17L67.2 18L48.989999999999995 19.375L19.32 17.8L.5 17Z" fill="url(#worldPaper)" stroke="#D0BC88" stroke-width="0" stroke-linecap="round" stroke-linejoin="round" opacity="0.03"/></g><text x="340.00" y="49.00" font-family="Inter" font-weight="900" font-size="32.00" fill="#211923" text-anchor="middle" data-layout-allow-overlap="">Compare both players</text></g></svg>