<svg xmlns="http://www.w3.org/2000/svg" width="360" height="640" viewBox="0 0 720 1280"><defs>
<pattern id="grain" width="31" height="29" patternUnits="userSpaceOnUse">
  <circle cx="4" cy="6" r="1.2" fill="#806F5D" opacity=".16"/>
  <circle cx="23" cy="12" r=".85" fill="#806F5D" opacity=".13"/>
  <circle cx="12" cy="24" r=".7" fill="#806F5D" opacity=".12"/>
  <path d="M18 3 l2 .7 M5 20 l2 -.4" stroke="#806F5D" stroke-width=".8" opacity=".12"/>
  <circle cx="28" cy="27" r="1.5" fill="#FFFFFF" opacity=".16"/>
</pattern>
<pattern id="darkGrain" width="29" height="31" patternUnits="userSpaceOnUse">
  <circle cx="7" cy="9" r=".9" fill="#F4EBD8" opacity=".09"/>
  <circle cx="20" cy="23" r=".7" fill="#F4EBD8" opacity=".08"/>
</pattern>
<pattern id="cardGrain" width="47" height="41" patternUnits="userSpaceOnUse"><path d="M3 6l2 1M22 10l3 -1M37 31l2 0M9 29l3 1" stroke="#766A53" stroke-width=".65" opacity=".13"/><circle cx="34" cy="7" r=".7" fill="#FFF9EA" opacity=".35"/><circle cx="17" cy="20" r=".9" fill="#766A53" opacity=".1"/></pattern><pattern id="wallGrain" width="73" height="69" patternUnits="userSpaceOnUse"><path d="M5 12h3M41 21h4M28 53h3" stroke="#796955" stroke-width=".7" opacity=".13"/><circle cx="53" cy="48" r="1" fill="#F4EBD8" opacity=".25"/></pattern></defs><rect x="0" y="0" width="720" height="1280" rx="0" fill="#BBA688"/><g transform="translate(360 850) scale(0.720000) translate(-360 -850)"><rect x="-1000" y="-1000" width="2720" height="3280" rx="0" fill="#BBA688"/><rect x="-1000" y="-1000" width="2720" height="3280" rx="0" fill="url(#wallGrain)"/><path d="M-1000 1022L1720 995V2280H-1000Z" fill="#A99578"/><g id="pinboard-seam" transform="matrix(1.000000 0.000000 -0.000000 1.000000 44.000000 275.000000)"><path xmlns="http://www.w3.org/2000/svg" d="M0 0L628 -2" fill="none" stroke="#202C32" stroke-width="10" stroke-linecap="round" stroke-linejoin="round" /><rect xmlns="http://www.w3.org/2000/svg" x="15" y="-4" width="7" height="33" rx="1" fill="#DCCDB3" /><rect xmlns="http://www.w3.org/2000/svg" x="604" y="-4" width="7" height="33" rx="1" fill="#DCCDB3" /></g><g id="tabletop" transform="matrix(1.000000 0.000000 -0.000000 1.000000 0.000000 1009.000000)"><g xmlns="http://www.w3.org/2000/svg" transform="translate(5.0000 8.0000) rotate(0.0000) scale(1.00000)"><path d="M0 0L717 -3L720 46L644 47L567 43L490 50L411 44L331 48L251 44L160 50L81 43L0 48Z" fill="#202C32" /></g><g xmlns="http://www.w3.org/2000/svg" transform="translate(2.0000 4.0000) rotate(0.0000) scale(1.00000)"><path d="M0 0L717 -3L720 46L644 47L567 43L490 50L411 44L331 48L251 44L160 50L81 43L0 48Z" fill="#DCCDB3" /></g><path xmlns="http://www.w3.org/2000/svg" d="M0 0L717 -3L720 46L644 47L567 43L490 50L411 44L331 48L251 44L160 50L81 43L0 48Z" fill="#F4EBD8" /><path xmlns="http://www.w3.org/2000/svg" d="M0 0L717 -3L720 46L644 47L567 43L490 50L411 44L331 48L251 44L160 50L81 43L0 48Z" fill="url(#cardGrain)" /></g><ellipse cx="368" cy="982" rx="276" ry="21" fill="#202C32" opacity=".12"/><g opacity="0.180000"><g id="paper-gold-checkpoint-plate" transform="matrix(0.950000 0.000000 -0.000000 0.950000 33.000000 563.000000)"><g xmlns="http://www.w3.org/2000/svg" transform="translate(5.0000 8.0000) rotate(0.0000) scale(1.00000)"><path d="M1 119L115 6L137 0L262 122L247 330L7 334Z" fill="#202C32" /></g><g xmlns="http://www.w3.org/2000/svg" transform="translate(2.0000 4.0000) rotate(0.0000) scale(1.00000)"><path d="M1 119L115 6L137 0L262 122L247 330L7 334Z" fill="#DCCDB3" /></g><path xmlns="http://www.w3.org/2000/svg" d="M1 119L115 6L137 0L262 122L247 330L7 334Z" fill="#EBC46B" /><path xmlns="http://www.w3.org/2000/svg" d="M1 119L115 6L137 0L262 122L247 330L7 334Z" fill="url(#cardGrain)" /><path xmlns="http://www.w3.org/2000/svg" d="M16 118L128 19L246 123L244 315L20 319Z" fill="none" stroke="#B58E39" stroke-width="4" stroke-linecap="round" stroke-linejoin="round" /><rect xmlns="http://www.w3.org/2000/svg" x="35" y="135" width="45" height="52" rx="3" fill="#254D50" /><rect xmlns="http://www.w3.org/2000/svg" x="101" y="135" width="45" height="52" rx="3" fill="#254D50" /><rect xmlns="http://www.w3.org/2000/svg" x="171" y="135" width="45" height="52" rx="3" fill="#254D50" /><path xmlns="http://www.w3.org/2000/svg" d="M16 118L128 19L246 123" fill="none" stroke="#56BFB1" stroke-width="9" stroke-linecap="round" stroke-linejoin="round" /><rect xmlns="http://www.w3.org/2000/svg" x="39" y="139" width="37" height="44" rx="3" fill="#F4EBD8" /><rect xmlns="http://www.w3.org/2000/svg" x="105" y="139" width="37" height="44" rx="3" fill="#F4EBD8" /><rect xmlns="http://www.w3.org/2000/svg" x="175" y="139" width="37" height="44" rx="3" fill="#F4EBD8" /><path xmlns="http://www.w3.org/2000/svg" d="M25 296L228 296" fill="none" stroke="#F4EBD8" stroke-width="13" stroke-linecap="round" stroke-linejoin="round" /></g></g><g opacity="0.180000"><g id="rowhouse-facade" transform="matrix(1.000000 0.000000 -0.000000 1.000000 420.000000 518.000000)"><g xmlns="http://www.w3.org/2000/svg" transform="translate(5.0000 8.0000) rotate(0.0000) scale(1.00000)"><path d="M8 4L369 0Q381 68 375 153L380 444L2 448Q-3 310 0 191Z" fill="#202C32" /></g><g xmlns="http://www.w3.org/2000/svg" transform="translate(2.0000 4.0000) rotate(0.0000) scale(1.00000)"><path d="M8 4L369 0Q381 68 375 153L380 444L2 448Q-3 310 0 191Z" fill="#DCCDB3" /></g><path xmlns="http://www.w3.org/2000/svg" d="M8 4L369 0Q381 68 375 153L380 444L2 448Q-3 310 0 191Z" fill="#F4EBD8" /><path xmlns="http://www.w3.org/2000/svg" d="M8 4L369 0Q381 68 375 153L380 444L2 448Q-3 310 0 191Z" fill="url(#cardGrain)" /><g xmlns="http://www.w3.org/2000/svg" transform="translate(5.0000 8.0000) rotate(0.0000) scale(1.00000)"><path d="M31 161Q189 153 343 161L344 388Q193 395 29 388Z" fill="#202C32" /></g><g xmlns="http://www.w3.org/2000/svg" transform="translate(2.0000 4.0000) rotate(0.0000) scale(1.00000)"><path d="M31 161Q189 153 343 161L344 388Q193 395 29 388Z" fill="#DCCDB3" /></g><path xmlns="http://www.w3.org/2000/svg" d="M31 161Q189 153 343 161L344 388Q193 395 29 388Z" fill="#254D50" /><path xmlns="http://www.w3.org/2000/svg" d="M31 161Q189 153 343 161L344 388Q193 395 29 388Z" fill="url(#cardGrain)" /><g xmlns="http://www.w3.org/2000/svg" transform="translate(33.0000 31.0000) rotate(0.0000) scale(1.00000)"><g transform="translate(5.0000 8.0000) rotate(0.0000) scale(1.00000)"><path d="M0 0L81 -2L82 105L-2 109Z" fill="#202C32" /></g><g transform="translate(2.0000 4.0000) rotate(0.0000) scale(1.00000)"><path d="M0 0L81 -2L82 105L-2 109Z" fill="#DCCDB3" /></g><path d="M0 0L81 -2L82 105L-2 109Z" fill="#DCCDB3" /><path d="M0 0L81 -2L82 105L-2 109Z" fill="url(#cardGrain)" /><rect x="9" y="8" width="64" height="87" rx="7" fill="#64869A" /><path d="M40.5 9V95M9 48H73" fill="none" stroke="#F4EBD8" stroke-width="5" stroke-linecap="round" stroke-linejoin="round" /></g><g xmlns="http://www.w3.org/2000/svg" transform="translate(148.0000 25.0000) rotate(0.0000) scale(1.00000)"><g transform="translate(5.0000 8.0000) rotate(0.0000) scale(1.00000)"><path d="M0 0L89 -2L90 105L-2 109Z" fill="#202C32" /></g><g transform="translate(2.0000 4.0000) rotate(0.0000) scale(1.00000)"><path d="M0 0L89 -2L90 105L-2 109Z" fill="#DCCDB3" /></g><path d="M0 0L89 -2L90 105L-2 109Z" fill="#DCCDB3" /><path d="M0 0L89 -2L90 105L-2 109Z" fill="url(#cardGrain)" /><rect x="9" y="8" width="72" height="87" rx="7" fill="#64869A" /><path d="M44.5 9V95M9 48H81" fill="none" stroke="#F4EBD8" stroke-width="5" stroke-linecap="round" stroke-linejoin="round" /></g><g xmlns="http://www.w3.org/2000/svg" transform="translate(272.0000 35.0000) rotate(0.0000) scale(1.00000)"><g transform="translate(5.0000 8.0000) rotate(0.0000) scale(1.00000)"><path d="M0 0L76 -2L77 105L-2 109Z" fill="#202C32" /></g><g transform="translate(2.0000 4.0000) rotate(0.0000) scale(1.00000)"><path d="M0 0L76 -2L77 105L-2 109Z" fill="#DCCDB3" /></g><path d="M0 0L76 -2L77 105L-2 109Z" fill="#DCCDB3" /><path d="M0 0L76 -2L77 105L-2 109Z" fill="url(#cardGrain)" /><rect x="9" y="8" width="59" height="87" rx="7" fill="#64869A" /><path d="M38.0 9V95M9 48H68" fill="none" stroke="#F4EBD8" stroke-width="5" stroke-linecap="round" stroke-linejoin="round" /></g><rect xmlns="http://www.w3.org/2000/svg" x="22" y="415" width="326" height="13" rx="3" fill="#DCCDB3" /><path xmlns="http://www.w3.org/2000/svg" d="M20 398H352" fill="none" stroke="#DCCDB3" stroke-width="4" stroke-linecap="round" stroke-linejoin="round" /><rect xmlns="http://www.w3.org/2000/svg" x="78" y="194" width="117" height="24" rx="5" fill="#F1DEB7" /><rect xmlns="http://www.w3.org/2000/svg" x="88" y="227" width="94" height="10" rx="4" fill="#819B88" /></g></g><g opacity="0.180000"><g id="left-keyed-roof-slot" transform="matrix(1.000000 0.000000 -0.000000 1.000000 427.000000 514.000000)"><rect xmlns="http://www.w3.org/2000/svg" x="0" y="0" width="26" height="22" rx="5" fill="#202C32" /><rect xmlns="http://www.w3.org/2000/svg" x="6" y="4" width="14" height="8" rx="2" fill="#DCCDB3" /></g><g id="right-keyed-roof-slot" transform="matrix(1.000000 0.000000 -0.000000 1.000000 785.000000 514.000000)"><rect xmlns="http://www.w3.org/2000/svg" x="0" y="0" width="26" height="22" rx="5" fill="#202C32" /><rect xmlns="http://www.w3.org/2000/svg" x="6" y="4" width="14" height="8" rx="2" fill="#DCCDB3" /></g></g><g opacity="0.180000"><g id="interior-floor-strip" transform="matrix(1.000000 0.000000 -0.000000 1.000000 452.000000 853.000000)"><g xmlns="http://www.w3.org/2000/svg" transform="translate(5.0000 8.0000) rotate(0.0000) scale(1.00000)"><path d="M0 0L312 -2L316 30L1 33Z" fill="#202C32" /></g><g xmlns="http://www.w3.org/2000/svg" transform="translate(2.0000 4.0000) rotate(0.0000) scale(1.00000)"><path d="M0 0L312 -2L316 30L1 33Z" fill="#DCCDB3" /></g><path xmlns="http://www.w3.org/2000/svg" d="M0 0L312 -2L316 30L1 33Z" fill="#F4EBD8" /><path xmlns="http://www.w3.org/2000/svg" d="M0 0L312 -2L316 30L1 33Z" fill="url(#cardGrain)" /><path xmlns="http://www.w3.org/2000/svg" d="M13 8L299 7" fill="none" stroke="#DCCDB3" stroke-width="4" stroke-linecap="round" stroke-linejoin="round" /></g></g><g opacity="0.180000"><g id="comparison-leaf-spring" transform="matrix(1.000000 0.000000 -0.000000 1.000000 385.000000 925.000000)"><g transform="translate(0.0000 0.0000) rotate(0.0000) scale(1.00000)"><path xmlns="http://www.w3.org/2000/svg" d="M0 31L14 5L31 50L48 5L65 50L82 5L99 49L114 7L128 31" fill="none" stroke="#EBC46B" stroke-width="9" stroke-linecap="round" stroke-linejoin="round" /><path xmlns="http://www.w3.org/2000/svg" d="M0 31L14 5L31 50L48 5L65 50L82 5L99 49L114 7L128 31" fill="none" stroke="#202C32" stroke-width="2" stroke-linecap="round" stroke-linejoin="round" /></g></g></g><g opacity="0.180000"><g id="return-drive-flywheel" transform="matrix(-0.000000 -0.900000 0.900000 -0.000000 570.000000 880.000000)"><circle xmlns="http://www.w3.org/2000/svg" cx="40" cy="40" r="38" fill="#DCCDB3" /><circle xmlns="http://www.w3.org/2000/svg" cx="38" cy="36" r="33" fill="#EBC46B" /><circle xmlns="http://www.w3.org/2000/svg" cx="38" cy="36" r="9" fill="#254D50" /><path xmlns="http://www.w3.org/2000/svg" d="M38 8V24M38 48V64M10 36H26M50 36H66" fill="none" stroke="#254D50" stroke-width="5" stroke-linecap="round" stroke-linejoin="round" /></g></g><g opacity="0.180000"><path d="M463 940L604 912L451 844" fill="none" stroke="#EBC46B" stroke-width="8" stroke-linecap="round" stroke-linejoin="round"/></g><g opacity="0.180000"><g id="comparison-drive-rack" transform="matrix(1.000000 0.000000 -0.000000 1.000000 238.000000 829.000000)"><g xmlns="http://www.w3.org/2000/svg" transform="translate(5.0000 8.0000) rotate(0.0000) scale(1.00000)"><path d="M0 0L246 0L246 20L232 20L232 31L211 31L211 20L181 20L181 31L160 31L160 20L130 20L130 31L109 31L109 20L79 20L79 31L58 31L58 20L27 20L27 31L7 31L7 20L0 20Z" fill="#202C32" /></g><g xmlns="http://www.w3.org/2000/svg" transform="translate(2.0000 4.0000) rotate(0.0000) scale(1.00000)"><path d="M0 0L246 0L246 20L232 20L232 31L211 31L211 20L181 20L181 31L160 31L160 20L130 20L130 31L109 31L109 20L79 20L79 31L58 31L58 20L27 20L27 31L7 31L7 20L0 20Z" fill="#DCCDB3" /></g><path xmlns="http://www.w3.org/2000/svg" d="M0 0L246 0L246 20L232 20L232 31L211 31L211 20L181 20L181 31L160 31L160 20L130 20L130 31L109 31L109 20L79 20L79 31L58 31L58 20L27 20L27 31L7 31L7 20L0 20Z" fill="#EBC46B" /><path xmlns="http://www.w3.org/2000/svg" d="M0 0L246 0L246 20L232 20L232 31L211 31L211 20L181 20L181 31L160 31L160 20L130 20L130 31L109 31L109 20L79 20L79 31L58 31L58 20L27 20L27 31L7 31L7 20L0 20Z" fill="url(#cardGrain)" /></g></g><g opacity="0.180000"><path d="M230 839L181 593M432 839L504 611" fill="none" stroke="#EBC46B" stroke-width="8" stroke-linecap="round" stroke-linejoin="round"/></g><g opacity="0.180000"><path d="M482.0 844.0L610.0 966.0" fill="none" stroke="#EBC46B" stroke-width="6" stroke-linecap="round" stroke-linejoin="round"/></g><g transform="translate(0.0000 0.0000) rotate(0.0000) scale(1.00000)"><rect x="-80" y="535" width="930" height="22" rx="3" fill="#F4EBD8"/><path d="M-75 556H840" fill="none" stroke="#202C32" stroke-width="5" stroke-linecap="round" stroke-linejoin="round"/></g><g id="teal-original-roof" transform="matrix(1.000000 0.000000 -0.000000 1.000000 -75.000000 338.000000)"><g xmlns="http://www.w3.org/2000/svg" transform="translate(5.0000 8.0000) rotate(0.0000) scale(1.00000)"><path d="M1 171L217 4Q225 -3 239 11L450 169L445 191L8 188Z" fill="#202C32" /></g><g xmlns="http://www.w3.org/2000/svg" transform="translate(2.0000 4.0000) rotate(0.0000) scale(1.00000)"><path d="M1 171L217 4Q225 -3 239 11L450 169L445 191L8 188Z" fill="#DCCDB3" /></g><path xmlns="http://www.w3.org/2000/svg" d="M1 171L217 4Q225 -3 239 11L450 169L445 191L8 188Z" fill="#56BFB1" /><path xmlns="http://www.w3.org/2000/svg" d="M1 171L217 4Q225 -3 239 11L450 169L445 191L8 188Z" fill="url(#cardGrain)" /><path xmlns="http://www.w3.org/2000/svg" d="M1 171L217 4L450 169L437 177L217 25L18 180Z" fill="#318E85" /><path xmlns="http://www.w3.org/2000/svg" d="M91 112L361 112M130 81L319 81M50 145L405 145" fill="none" stroke="#254D50" stroke-width="3" stroke-linecap="round" stroke-linejoin="round" /><path xmlns="http://www.w3.org/2000/svg" d="M153 82L150 110M233 113L231 145M310 146L309 173" fill="none" stroke="#254D50" stroke-width="2" stroke-linecap="round" stroke-linejoin="round" /><rect xmlns="http://www.w3.org/2000/svg" x="30" y="183" width="25" height="18" rx="3" fill="#254D50" /><rect xmlns="http://www.w3.org/2000/svg" x="388" y="183" width="25" height="18" rx="3" fill="#254D50" /></g><g id="coral-replacement-roof" transform="matrix(1.000000 0.000000 -0.000000 1.000000 385.000000 458.000000)"><g xmlns="http://www.w3.org/2000/svg" transform="translate(5.0000 8.0000) rotate(0.0000) scale(1.00000)"><path d="M0 2L174 -2L447 5L452 69L349 72L349 51L309 51L308 72L2 69Z" fill="#202C32" /></g><g xmlns="http://www.w3.org/2000/svg" transform="translate(2.0000 4.0000) rotate(0.0000) scale(1.00000)"><path d="M0 2L174 -2L447 5L452 69L349 72L349 51L309 51L308 72L2 69Z" fill="#DCCDB3" /></g><path xmlns="http://www.w3.org/2000/svg" d="M0 2L174 -2L447 5L452 69L349 72L349 51L309 51L308 72L2 69Z" fill="#DF806B" /><path xmlns="http://www.w3.org/2000/svg" d="M0 2L174 -2L447 5L452 69L349 72L349 51L309 51L308 72L2 69Z" fill="url(#cardGrain)" /><path xmlns="http://www.w3.org/2000/svg" d="M14 18L432 21M14 49H290M371 51H433" fill="none" stroke="#AD5D4E" stroke-width="4" stroke-linecap="round" stroke-linejoin="round" /><path xmlns="http://www.w3.org/2000/svg" d="M310 51H349V75H310Z" fill="#254D50" /><rect xmlns="http://www.w3.org/2000/svg" x="30" y="67" width="25" height="18" rx="3" fill="#254D50" /><rect xmlns="http://www.w3.org/2000/svg" x="388" y="68" width="25" height="18" rx="3" fill="#254D50" /></g><path d="M243.0 844.0L-45.0 521.0" fill="none" stroke="#EBC46B" stroke-width="8" stroke-linecap="round" stroke-linejoin="round"/><g transform="translate(-45.0000 521.0000) rotate(0.0000) scale(1.00000)"><path d="M-12 -6V10H12V-6" fill="none" stroke="#254D50" stroke-width="5" stroke-linecap="round" stroke-linejoin="round"/></g><path d="M482.0 844.0L427.0 536.0" fill="none" stroke="#EBC46B" stroke-width="6" stroke-linecap="round" stroke-linejoin="round"/><g opacity="0.180000"><g id="paper-gold-history-strip" transform="matrix(1.000000 0.000000 -0.000000 1.000000 70.000000 946.000000)"><g transform="translate(0.0000 0.0000) rotate(0.0000) scale(1.00000)"><g transform="translate(5.0000 8.0000) rotate(0.0000) scale(1.00000)"><path d="M0 3L76 0L81 84L4 90Z" fill="#202C32"/></g><g transform="translate(2.0000 4.0000) rotate(0.0000) scale(1.00000)"><path d="M0 3L76 0L81 84L4 90Z" fill="#DCCDB3"/></g><path d="M0 3L76 0L81 84L4 90Z" fill="#EBC46B"/><path d="M0 3L76 0L81 84L4 90Z" fill="url(#cardGrain)"/><path d="M5 4V85" fill="none" stroke="#B58E39" stroke-width="3" stroke-linecap="round" stroke-linejoin="round"/></g><g transform="translate(72.0000 0.0000) rotate(0.0000) scale(1.00000)"><g transform="translate(5.0000 8.0000) rotate(0.0000) scale(1.00000)"><path d="M0 3L76 0L81 84L4 90Z" fill="#202C32"/></g><g transform="translate(2.0000 4.0000) rotate(0.0000) scale(1.00000)"><path d="M0 3L76 0L81 84L4 90Z" fill="#DCCDB3"/></g><path d="M0 3L76 0L81 84L4 90Z" fill="#EBC46B"/><path d="M0 3L76 0L81 84L4 90Z" fill="url(#cardGrain)"/><path d="M5 4V85" fill="none" stroke="#B58E39" stroke-width="3" stroke-linecap="round" stroke-linejoin="round"/></g><g transform="translate(144.0000 0.0000) rotate(0.0000) scale(1.00000)"><g transform="translate(5.0000 8.0000) rotate(0.0000) scale(1.00000)"><path d="M0 3L76 0L81 84L4 90Z" fill="#202C32"/></g><g transform="translate(2.0000 4.0000) rotate(0.0000) scale(1.00000)"><path d="M0 3L76 0L81 84L4 90Z" fill="#DCCDB3"/></g><path d="M0 3L76 0L81 84L4 90Z" fill="#EBC46B"/><path d="M0 3L76 0L81 84L4 90Z" fill="url(#cardGrain)"/><path d="M5 4V85" fill="none" stroke="#B58E39" stroke-width="3" stroke-linecap="round" stroke-linejoin="round"/></g><g transform="translate(216.0000 0.0000) rotate(0.0000) scale(1.00000)"><g transform="translate(5.0000 8.0000) rotate(0.0000) scale(1.00000)"><path d="M0 3L76 0L81 84L4 90Z" fill="#202C32"/></g><g transform="translate(2.0000 4.0000) rotate(0.0000) scale(1.00000)"><path d="M0 3L76 0L81 84L4 90Z" fill="#DCCDB3"/></g><path d="M0 3L76 0L81 84L4 90Z" fill="#EBC46B"/><path d="M0 3L76 0L81 84L4 90Z" fill="url(#cardGrain)"/><path d="M5 4V85" fill="none" stroke="#B58E39" stroke-width="3" stroke-linecap="round" stroke-linejoin="round"/></g><g transform="translate(288.0000 0.0000) rotate(0.0000) scale(1.00000)"><g transform="translate(5.0000 8.0000) rotate(0.0000) scale(1.00000)"><path d="M0 3L76 0L81 84L4 90Z" fill="#202C32"/></g><g transform="translate(2.0000 4.0000) rotate(0.0000) scale(1.00000)"><path d="M0 3L76 0L81 84L4 90Z" fill="#DCCDB3"/></g><path d="M0 3L76 0L81 84L4 90Z" fill="#EBC46B"/><path d="M0 3L76 0L81 84L4 90Z" fill="url(#cardGrain)"/><path d="M5 4V85" fill="none" stroke="#B58E39" stroke-width="3" stroke-linecap="round" stroke-linejoin="round"/></g><g transform="translate(360.0000 0.0000) rotate(0.0000) scale(1.00000)"><g transform="translate(5.0000 8.0000) rotate(0.0000) scale(1.00000)"><path d="M0 3L76 0L81 84L4 90Z" fill="#202C32"/></g><g transform="translate(2.0000 4.0000) rotate(0.0000) scale(1.00000)"><path d="M0 3L76 0L81 84L4 90Z" fill="#DCCDB3"/></g><path d="M0 3L76 0L81 84L4 90Z" fill="#EBC46B"/><path d="M0 3L76 0L81 84L4 90Z" fill="url(#cardGrain)"/><path d="M5 4V85" fill="none" stroke="#B58E39" stroke-width="3" stroke-linecap="round" stroke-linejoin="round"/></g></g></g></g></svg>