<svg xmlns="http://www.w3.org/2000/svg" width="1080" height="1920" viewBox="0 0 1080 1920" role="img" aria-label="scene-03 midground layer">
<title>scene-03 midground layer</title>
<defs>
<pattern id="sceneGrain" width="43" height="39" patternUnits="userSpaceOnUse">
 <circle cx="7" cy="9" r="1.1" fill="#F4EBD8" opacity=".13"/>
 <circle cx="30" cy="20" r=".8" fill="#F4EBD8" opacity=".12"/>
 <circle cx="17" cy="33" r="1" fill="#202C32" opacity=".11"/>
 <path d="M25 5 l3 .5 M4 28 l2 -.5" stroke="#F4EBD8" stroke-width=".8" opacity=".16"/>
 <ellipse cx="38" cy="31" rx="2.4" ry=".8" fill="#F4EBD8" opacity=".11"/>
 <path d="M14 19 l4 -.7 M34 8 l-2 1.4" stroke="#202C32" stroke-width=".7" opacity=".13"/>
</pattern>
<pattern id="paperSpeckle" width="29" height="31" patternUnits="userSpaceOnUse">
 <circle cx="5" cy="7" r=".8" fill="#725343" opacity=".18"/>
 <circle cx="19" cy="17" r="1.1" fill="#725343" opacity=".13"/>
 <path d="M10 26 l3 -.5" stroke="#725343" stroke-width=".7" opacity=".13"/>
 <ellipse cx="24" cy="5" rx="1.9" ry=".7" fill="#725343" opacity=".13"/>
 <path d="M3 19 l2 .8 M20 28 l2 -1" stroke="#725343" stroke-width=".6" opacity=".14"/>
</pattern>
<pattern id="woodFiber" width="59" height="41" patternUnits="userSpaceOnUse">
 <path d="M5 12 q13 -3 26 0 M34 29 q10 2 19 -1 M16 34 l8 -1" fill="none" stroke="#725343" stroke-width="1.3" opacity=".18"/>
 <circle cx="47" cy="10" r="1" fill="#F4EBD8" opacity=".18"/>
 <circle cx="9" cy="28" r=".8" fill="#202C32" opacity=".12"/>
</pattern>
</defs><defs>
<pattern id="grain" width="31" height="29" patternUnits="userSpaceOnUse">
  <circle cx="4" cy="6" r="1.2" fill="#806F5D" opacity=".16"/>
  <circle cx="23" cy="12" r=".85" fill="#806F5D" opacity=".13"/>
  <circle cx="12" cy="24" r=".7" fill="#806F5D" opacity=".12"/>
  <path d="M18 3 l2 .7 M5 20 l2 -.4" stroke="#806F5D" stroke-width=".8" opacity=".12"/>
  <circle cx="28" cy="27" r="1.5" fill="#FFFFFF" opacity=".16"/>
</pattern>
<pattern id="darkGrain" width="29" height="31" patternUnits="userSpaceOnUse">
  <circle cx="7" cy="9" r=".9" fill="#F4EBD8" opacity=".09"/>
  <circle cx="20" cy="23" r=".7" fill="#F4EBD8" opacity=".08"/>
</pattern>
</defs>
<g id="wall-pipes" data-asset="assets/scenes/scene-03/environment/wall-pipes.svg" transform="translate(92 415)"><path d="M53 211 L53 66 Q54 39 79 39 H379 Q401 41 401 67 V194 M488 210 L488 95 Q490 75 512 75 H800 Q823 75 823 95 V210" fill="none" stroke="#3C5D68" stroke-width="31" stroke-linecap="round" stroke-linejoin="round"/><path d="M53 211 L53 66 Q54 39 79 39 H379 Q401 41 401 67 V194 M488 210 L488 95 Q490 75 512 75 H800 Q823 75 823 95 V210" fill="none" stroke="#DCCDB3" stroke-width="20" stroke-linecap="round" stroke-linejoin="round"/><path d="M54 211 L54 66 Q54 40 79 40 H378 Q400 41 400 66 V192 M488 209 L488 95 Q490 76 513 76 H799 Q822 76 822 95 V209" fill="none" stroke="#F4EBD8" stroke-width="15" stroke-linecap="round" stroke-linejoin="round"/><rect x="39" y="103" width="27" height="34" rx="5" fill="#318E85" opacity=".64"/><rect x="386" y="111" width="27" height="34" rx="5" fill="#318E85" opacity=".64"/><rect x="475" y="135" width="27" height="34" rx="5" fill="#318E85" opacity=".64"/><rect x="808" y="129" width="27" height="34" rx="5" fill="#318E85" opacity=".64"/></g>
<g id="scan-sign" data-asset="assets/scenes/scene-03/props/scan-sign.svg" transform="translate(400 344)"><path d="M20 15 Q143 4 265 15 L270 99 Q145 109 15 101 Z" transform="translate(6 8)" fill="#252A32" opacity=".19"/><path d="M20 15 Q143 4 265 15 L270 99 Q145 109 15 101 Z" transform="translate(2 4)" fill="#DCCDB3" opacity=".6"/><path d="M20 15 Q143 4 265 15 L270 99 Q145 109 15 101 Z" fill="#F4EBD8"/><path d="M20 15 Q143 4 265 15 L270 99 Q145 109 15 101 Z" fill="url(#paperSpeckle)" opacity=".72"/><path d="M20 15 Q143 4 265 15 L270 99 Q145 109 15 101 Z" fill="none" stroke="#DCCDB3" stroke-width="2" opacity=".38"/><circle cx="78" cy="57" r="25" fill="none" stroke="#318E85" stroke-width="8"/><path d="M96 76 L117 92" fill="none" stroke="#318E85" stroke-width="9" opacity="1" stroke-linecap="round" stroke-linejoin="round"/><text x="129" y="68" font-family="DejaVu Sans, Arial, sans-serif" font-size="32" font-weight="700" fill="#202C32" letter-spacing="1">SCAN</text><path d="M39 13 L51 -10 M235 13 L247 -10" stroke="#DCCDB3" stroke-width="6"/></g>
<g id="quality-gauge" data-asset="assets/scenes/scene-03/props/quality-gauge.svg" transform="translate(835 562)"><path d="M75 5 Q126 4 145 51 Q161 98 125 129 Q87 158 45 134 Q6 113 5 71 Q4 26 43 10 Q59 4 75 5 Z" transform="translate(6 8)" fill="#252A32" opacity=".19"/><path d="M75 5 Q126 4 145 51 Q161 98 125 129 Q87 158 45 134 Q6 113 5 71 Q4 26 43 10 Q59 4 75 5 Z" transform="translate(2 4)" fill="#DCCDB3" opacity=".6"/><path d="M75 5 Q126 4 145 51 Q161 98 125 129 Q87 158 45 134 Q6 113 5 71 Q4 26 43 10 Q59 4 75 5 Z" fill="#F4EBD8"/><path d="M75 5 Q126 4 145 51 Q161 98 125 129 Q87 158 45 134 Q6 113 5 71 Q4 26 43 10 Q59 4 75 5 Z" fill="url(#paperSpeckle)" opacity=".72"/><path d="M75 5 Q126 4 145 51 Q161 98 125 129 Q87 158 45 134 Q6 113 5 71 Q4 26 43 10 Q59 4 75 5 Z" fill="none" stroke="#DCCDB3" stroke-width="2" opacity=".38"/><path d="M31 102 Q12 72 34 42 M34 42 Q74 0 116 41 M116 41 Q139 71 119 103" fill="none" stroke="#DCCDB3" stroke-width="8"/><path d="M32 103 Q72 132 119 103" fill="none" stroke="#318E85" stroke-width="9"/><path d="M74 75 L109 57" fill="none" stroke="#202C32" stroke-width="7" opacity="1" stroke-linecap="round" stroke-linejoin="round"/><circle cx="74.0" cy="75.0" r="6.0" fill="#318E85" opacity="1"/></g>
<g id="scanner-frame" data-asset="assets/scenes/scene-03/machine/scanner-frame.svg" transform="translate(378 785)"><path d="M50 106 Q51 23 125 20 L228 20 Q303 22 306 104 L305 460 L245 461 L245 116 Q244 80 214 80 L138 80 Q108 81 107 118 L106 460 L45 461 Z" fill="#252A32" opacity=".2" transform="translate(8 9)"/><path d="M50 106 Q51 23 125 20 L228 20 Q303 22 306 104 L305 460 L245 461 L245 116 Q244 80 214 80 L138 80 Q108 81 107 118 L106 460 L45 461 Z" transform="translate(6 8)" fill="#252A32" opacity=".19"/><path d="M50 106 Q51 23 125 20 L228 20 Q303 22 306 104 L305 460 L245 461 L245 116 Q244 80 214 80 L138 80 Q108 81 107 118 L106 460 L45 461 Z" transform="translate(2 4)" fill="#DCCDB3" opacity=".6"/><path d="M50 106 Q51 23 125 20 L228 20 Q303 22 306 104 L305 460 L245 461 L245 116 Q244 80 214 80 L138 80 Q108 81 107 118 L106 460 L45 461 Z" fill="#F4EBD8"/><path d="M50 106 Q51 23 125 20 L228 20 Q303 22 306 104 L305 460 L245 461 L245 116 Q244 80 214 80 L138 80 Q108 81 107 118 L106 460 L45 461 Z" fill="url(#paperSpeckle)" opacity=".72"/><path d="M50 106 Q51 23 125 20 L228 20 Q303 22 306 104 L305 460 L245 461 L245 116 Q244 80 214 80 L138 80 Q108 81 107 118 L106 460 L45 461 Z" fill="none" stroke="#DCCDB3" stroke-width="2" opacity=".38"/><path d="M107 186 Q178 172 245 186 L245 229 Q178 215 107 231 Z" fill="#318E85" opacity=".74"/><path d="M124 20 Q175 13 226 21" fill="none" stroke="#DCCDB3" stroke-width="7"/><circle cx="177" cy="64" r="25" fill="#3C5D68"/><path d="M164 64 l10 10 18 -23" fill="none" stroke="#A6E5D6" stroke-width="6" opacity="1" stroke-linecap="round" stroke-linejoin="round"/><rect x="52" y="425" width="55" height="43" rx="9" fill="#3C5D68"/><rect x="245" y="425" width="58" height="43" rx="9" fill="#3C5D68"/></g>
<g id="scan-beam" data-asset="assets/scenes/scene-03/machine/scan-beam.svg" transform="translate(448 896)"><path d="M66 14 Q107 5 153 13 L198 300 Q108 319 9 300 Z" fill="#A6E5D6" opacity=".13"/><path d="M70 16 Q109 11 149 16 L147 304 Q107 310 72 304 Z" fill="#F4EBD8" opacity=".095"/><path d="M33 174 Q110 160 174 176" fill="none" stroke="#A6E5D6" stroke-width="6" opacity="0.56" stroke-linecap="round" stroke-linejoin="round"/><path d="M48 230 Q109 217 164 229" fill="none" stroke="#A6E5D6" stroke-width="4" opacity="0.35" stroke-linecap="round" stroke-linejoin="round"/></g>
</svg>
